<?xml version="1.0" encoding="UTF-8"?>
<!DOCTYPE svg PUBLIC "-//W3C//DTD SVG 1.1//EN" "http://www.w3.org/Graphics/SVG/1.1/DTD/svg11.dtd">
<!-- Creator: CorelDRAW 2021 (64-Bit) -->
<svg xmlns="http://www.w3.org/2000/svg" xml:space="preserve" width="0.833339in" height="0.253232in" version="1.1" style="shape-rendering:geometricPrecision; text-rendering:geometricPrecision; image-rendering:optimizeQuality; fill-rule:evenodd; clip-rule:evenodd"
viewBox="0 0 1031 313.3"
 xmlns:xlink="http://www.w3.org/1999/xlink"
 xmlns:xodm="http://www.corel.com/coreldraw/odm/2003">
 <defs>
  <style type="text/css">
   <![CDATA[
    .fil0 {fill:#0086FF;fill-rule:nonzero}
    .fil1 {fill:#01437D;fill-rule:nonzero}
    .fil2 {fill:#0BBEFF;fill-rule:nonzero}
    .fil3 {fill:#93C31F;fill-rule:nonzero}
   ]]>
  </style>
 </defs>
 <g id="Layer_x0020_1">
  <metadata id="CorelCorpID_0Corel-Layer"/>
  <path class="fil0" d="M303.94 80.48c-20.12,0 -37.07,7 -51.09,21.02 -14.01,14.24 -21.02,31.19 -21.02,51.09 0,19.89 7.01,36.85 21.02,50.86 14.02,14.24 30.97,21.25 51.09,21.25 19.89,0 36.84,-7.01 50.86,-21.25 14.01,-14.01 21.02,-30.97 21.02,-50.86 0,-19.89 -7.01,-36.85 -21.02,-51.09 -14.02,-14.02 -30.97,-21.02 -50.86,-21.02zm-28.26 100.36c-7.92,-7.91 -11.98,-17.18 -11.98,-28.26 0,-11.08 4.07,-20.57 11.98,-28.48 7.91,-7.92 17.18,-11.76 28.26,-11.76 11.08,0 20.35,3.84 28.26,11.76 7.91,7.91 11.75,17.4 11.75,28.48 0,11.08 -3.84,20.35 -11.75,28.26 -7.91,7.92 -17.18,11.76 -28.26,11.76 -11.08,0 -20.35,-3.84 -28.26,-11.76zm147.16 43.86l0 -96.3c0,-8.82 7.23,-16.05 16.05,-16.05l14.92 0 9.72 -31.87 -24.64 0c-13.34,0 -24.64,4.74 -33.91,14.01 -9.49,9.27 -14.24,20.57 -14.24,33.91l0 96.3 32.1 0zm126.13 -144.22c-14.47,0 -27.8,4.07 -40.01,12.21l0 -60.36 -31.87 0 0 120.26c0,19.89 7.01,36.85 21.02,50.86 14.02,14.24 30.97,21.25 50.86,21.25 20.12,0 37.08,-7.01 51.09,-21.25 14.01,-14.01 21.02,-30.97 21.02,-50.86 0,-19.89 -7.01,-36.85 -21.02,-51.09 -14.01,-14.02 -30.97,-21.02 -51.09,-21.02zm0 112.12c-11.08,0 -20.34,-3.84 -28.26,-11.76 -7.91,-7.91 -11.75,-17.18 -11.75,-28.26 0,-11.08 3.84,-20.35 11.75,-28.26 7.92,-7.91 17.18,-11.75 28.26,-11.75 11.08,0 20.57,3.84 28.48,11.75 7.91,7.91 11.75,17.18 11.75,28.26 0,11.08 -3.84,20.35 -11.75,28.26 -7.91,7.92 -17.4,11.76 -28.48,11.76zm94.04 -160.27l0 48.15 -14.47 0 0 32.1 14.47 0 0 63.97c0,13.34 4.74,24.64 14.24,33.91 9.26,9.49 20.57,14.24 33.91,14.24l7.91 0 0 -32.1 -7.91 0c-8.82,0 -16.05,-7.23 -16.05,-16.05l0 -63.97 14.47 0 0 -32.1 -14.47 0 0 -48.15 -32.1 0zm84.77 69.18c-14.24,14.24 -21.25,31.19 -21.25,51.09 0,19.89 7,36.85 21.25,50.86 14.02,14.24 30.97,21.25 50.86,21.25 14.47,0 27.81,-4.07 40.01,-12.21l0 12.21 32.1 0 0 -72.11c0,-19.89 -7.01,-36.85 -21.02,-51.09 -14.24,-14.02 -31.2,-21.02 -51.09,-21.02 -19.89,0 -36.84,7 -50.86,21.02zm22.61 79.34c-7.91,-7.91 -11.75,-17.18 -11.75,-28.26 0,-11.08 3.84,-20.57 11.75,-28.48 7.92,-7.92 17.18,-11.76 28.26,-11.76 11.08,0 20.35,3.84 28.26,11.76 7.92,7.91 11.76,17.4 11.76,28.48 0,11.08 -3.84,20.35 -11.76,28.26 -7.91,7.92 -17.18,11.76 -28.26,11.76 -11.08,0 -20.34,-3.84 -28.26,-11.76zm148.52 -148.52l-32.1 0 0 144.22c0,13.34 4.75,24.87 14.01,34.13 9.27,9.27 20.8,14.02 34.13,14.02l7.91 0 0 -32.1 -7.91 0c-9.04,0 -16.05,-7.23 -16.05,-16.05l0 -144.22zm72.11 0l-32.1 0 0 144.22c0,13.34 4.75,24.87 14.02,34.13 9.27,9.27 20.79,14.02 34.13,14.02l7.91 0 0 -32.1 -7.91 0c-9.05,0 -16.05,-7.23 -16.05,-16.05l0 -144.22z"/>
  <path class="fil1" d="M351.97 304.44c-0.68,0 -1.42,-0.02 -2.22,-0.05 -0.79,-0.03 -1.59,-0.08 -2.38,-0.15 -0.79,-0.07 -1.58,-0.15 -2.36,-0.24 -0.78,-0.1 -1.49,-0.23 -2.14,-0.39l0 -32.71c0.65,-0.16 1.36,-0.29 2.14,-0.39 0.78,-0.1 1.57,-0.18 2.36,-0.24 0.79,-0.06 1.58,-0.11 2.36,-0.15 0.77,-0.03 1.51,-0.05 2.19,-0.05 1.95,0 3.77,0.15 5.47,0.44 1.7,0.29 3.18,0.79 4.43,1.49 1.25,0.7 2.23,1.61 2.94,2.75 0.72,1.13 1.07,2.53 1.07,4.18 0,1.85 -0.44,3.37 -1.31,4.55 -0.88,1.18 -2.05,2.07 -3.51,2.65 1.98,0.58 3.55,1.51 4.72,2.78 1.17,1.27 1.75,3.05 1.75,5.35 0,3.38 -1.24,5.91 -3.72,7.62 -2.48,1.7 -6.42,2.56 -11.81,2.56zm-4.43 -16.02l0 11.88c0.36,0.03 0.78,0.06 1.27,0.1 0.42,0.03 0.92,0.06 1.48,0.07 0.57,0.01 1.23,0.02 1.97,0.02 1.4,0 2.72,-0.09 3.97,-0.27 1.25,-0.18 2.34,-0.49 3.28,-0.95 0.94,-0.45 1.7,-1.09 2.26,-1.89 0.57,-0.81 0.85,-1.84 0.85,-3.07 0,-1.1 -0.21,-2.04 -0.63,-2.8 -0.42,-0.76 -1.03,-1.37 -1.83,-1.82 -0.79,-0.46 -1.74,-0.78 -2.85,-0.97 -1.1,-0.19 -2.33,-0.29 -3.7,-0.29l-6.08 0zm0 -3.8l4.96 0c1.17,0 2.27,-0.08 3.31,-0.24 1.04,-0.16 1.94,-0.45 2.7,-0.88 0.76,-0.42 1.36,-0.97 1.8,-1.65 0.44,-0.68 0.66,-1.54 0.66,-2.58 0,-0.97 -0.23,-1.79 -0.68,-2.46 -0.45,-0.66 -1.08,-1.2 -1.88,-1.6 -0.79,-0.41 -1.72,-0.71 -2.8,-0.9 -1.07,-0.19 -2.21,-0.29 -3.41,-0.29 -1.2,0 -2.14,0.01 -2.82,0.05 -0.68,0.03 -1.3,0.08 -1.85,0.15l0 10.41zm46.48 18.79c-1.04,0.26 -2.41,0.54 -4.11,0.83 -1.7,0.29 -3.67,0.44 -5.91,0.44 -1.95,0 -3.58,-0.29 -4.92,-0.85 -1.33,-0.57 -2.4,-1.37 -3.21,-2.41 -0.81,-1.04 -1.4,-2.26 -1.75,-3.67 -0.36,-1.41 -0.54,-2.98 -0.54,-4.7l0 -14.21 4.53 0 0 13.24c0,3.08 0.49,5.29 1.46,6.62 0.97,1.33 2.62,2 4.92,2 0.49,0 0.99,-0.01 1.51,-0.05 0.52,-0.03 1.01,-0.07 1.46,-0.12 0.46,-0.05 0.87,-0.1 1.24,-0.15 0.38,-0.05 0.64,-0.1 0.8,-0.17l0 -21.37 4.52 0 0 24.58zm12.32 0.73l-4.53 0 0 -25.31 4.53 0 0 25.31zm-2.29 -29.89c-0.81,0 -1.5,-0.27 -2.07,-0.8 -0.57,-0.54 -0.85,-1.26 -0.85,-2.17 0,-0.91 0.29,-1.63 0.85,-2.17 0.57,-0.54 1.26,-0.8 2.07,-0.8 0.81,0 1.5,0.26 2.07,0.8 0.57,0.54 0.85,1.26 0.85,2.17 0,0.91 -0.29,1.63 -0.85,2.17 -0.57,0.54 -1.26,0.8 -2.07,0.8zm17.67 30.37c-2.79,-0.07 -4.77,-0.67 -5.94,-1.8 -1.16,-1.13 -1.75,-2.9 -1.75,-5.3l0 -30.37 4.52 -0.78 0 30.42c0,0.75 0.06,1.36 0.19,1.85 0.13,0.49 0.34,0.88 0.63,1.17 0.29,0.29 0.68,0.51 1.17,0.66 0.49,0.15 1.09,0.27 1.8,0.37l-0.63 3.8zm22.05 -20.45c-0.55,-0.45 -1.34,-0.89 -2.38,-1.31 -1.04,-0.42 -2.17,-0.63 -3.41,-0.63 -1.3,0 -2.41,0.23 -3.33,0.71 -0.93,0.47 -1.68,1.12 -2.26,1.94 -0.58,0.83 -1,1.81 -1.27,2.95 -0.26,1.13 -0.39,2.35 -0.39,3.65 0,2.96 0.73,5.24 2.19,6.84 1.46,1.61 3.41,2.41 5.84,2.41 1.23,0 2.26,-0.06 3.09,-0.17 0.83,-0.11 1.47,-0.23 1.92,-0.37l0 -16.02zm0 -17.03l4.53 -0.78 0 37.04c-1.04,0.29 -2.37,0.58 -3.99,0.88 -1.62,0.29 -3.49,0.44 -5.6,0.44 -1.95,0 -3.7,-0.31 -5.26,-0.93 -1.56,-0.62 -2.89,-1.5 -3.99,-2.63 -1.1,-1.13 -1.95,-2.52 -2.55,-4.16 -0.6,-1.64 -0.9,-3.48 -0.9,-5.53 0,-1.94 0.25,-3.73 0.75,-5.35 0.5,-1.62 1.24,-3.02 2.22,-4.18 0.97,-1.17 2.16,-2.08 3.58,-2.73 1.41,-0.65 3.02,-0.97 4.84,-0.97 1.46,0 2.75,0.19 3.87,0.58 1.12,0.39 1.95,0.76 2.5,1.12l0 -12.8zm16.84 36.99l-4.52 0 0 -25.31 4.52 0 0 25.31zm-2.28 -29.89c-0.81,0 -1.51,-0.27 -2.07,-0.8 -0.57,-0.54 -0.85,-1.26 -0.85,-2.17 0,-0.91 0.28,-1.63 0.85,-2.17 0.57,-0.54 1.26,-0.8 2.07,-0.8 0.81,0 1.5,0.26 2.07,0.8 0.57,0.54 0.85,1.26 0.85,2.17 0,0.91 -0.28,1.63 -0.85,2.17 -0.57,0.54 -1.26,0.8 -2.07,0.8zm10.07 5.3c1.04,-0.26 2.42,-0.54 4.14,-0.83 1.72,-0.29 3.7,-0.44 5.94,-0.44 2.01,0 3.68,0.28 5.01,0.85 1.33,0.57 2.39,1.36 3.19,2.39 0.79,1.02 1.35,2.25 1.68,3.67 0.33,1.43 0.49,3 0.49,4.72l0 14.21 -4.52 0 0 -13.24c0,-1.55 -0.11,-2.88 -0.32,-3.99 -0.21,-1.1 -0.56,-2 -1.05,-2.68 -0.49,-0.68 -1.13,-1.17 -1.95,-1.48 -0.81,-0.31 -1.82,-0.46 -3.02,-0.46 -0.49,0 -0.99,0.01 -1.51,0.05 -0.52,0.03 -1.01,0.07 -1.49,0.12 -0.47,0.05 -0.89,0.1 -1.27,0.17 -0.37,0.06 -0.64,0.11 -0.8,0.15l0 21.37 -4.52 0 0 -24.58zm43.81 22.05c-0.39,0.26 -1.14,0.59 -2.26,1 -1.12,0.4 -2.43,0.61 -3.92,0.61 -1.52,0 -2.96,-0.24 -4.31,-0.73 -1.35,-0.49 -2.52,-1.24 -3.53,-2.26 -1.01,-1.02 -1.8,-2.29 -2.39,-3.82 -0.58,-1.52 -0.88,-3.35 -0.88,-5.46 0,-1.85 0.28,-3.54 0.83,-5.09 0.56,-1.54 1.36,-2.87 2.41,-3.99 1.06,-1.12 2.34,-2 3.87,-2.63 1.53,-0.63 3.25,-0.95 5.16,-0.95 2.11,0 3.95,0.16 5.52,0.46 1.57,0.31 2.9,0.59 3.96,0.85l0 22.59c0,3.89 -1,6.72 -3.02,8.47 -2.01,1.75 -5.06,2.63 -9.15,2.63 -1.59,0 -3.09,-0.13 -4.5,-0.39 -1.41,-0.26 -2.64,-0.57 -3.68,-0.92l0.83 -3.95c0.91,0.36 2.02,0.67 3.34,0.95 1.31,0.28 2.68,0.41 4.11,0.41 2.69,0 4.63,-0.54 5.82,-1.61 1.19,-1.07 1.78,-2.77 1.78,-5.11l0 -1.07zm-0.05 -18.79c-0.45,-0.13 -1.06,-0.25 -1.83,-0.37 -0.76,-0.12 -1.79,-0.17 -3.09,-0.17 -2.44,0 -4.31,0.79 -5.62,2.38 -1.32,1.59 -1.97,3.7 -1.97,6.33 0,1.46 0.19,2.71 0.56,3.75 0.37,1.04 0.88,1.9 1.51,2.58 0.63,0.68 1.36,1.18 2.19,1.51 0.83,0.33 1.68,0.49 2.56,0.49 1.2,0 2.3,-0.17 3.31,-0.51 1.01,-0.34 1.8,-0.74 2.39,-1.19l0 -14.8zm265.53 8.71c0,-2.24 0.33,-4.19 0.97,-5.86 0.65,-1.67 1.51,-3.06 2.58,-4.16 1.07,-1.11 2.3,-1.93 3.7,-2.48 1.39,-0.55 2.83,-0.83 4.28,-0.83 3.41,0 6.02,1.06 7.84,3.19 1.82,2.12 2.73,5.36 2.73,9.71 0,0.19 0,0.45 0,0.75 0,0.31 -0.01,0.59 -0.05,0.85l-17.33 0c0.19,2.63 0.96,4.63 2.29,5.99 1.33,1.36 3.4,2.05 6.23,2.05 1.59,0 2.93,-0.14 4.02,-0.41 1.09,-0.27 1.9,-0.54 2.45,-0.8l0.63 3.8c-0.55,0.29 -1.51,0.6 -2.89,0.93 -1.38,0.32 -2.95,0.49 -4.7,0.49 -2.21,0 -4.11,-0.34 -5.72,-1 -1.61,-0.67 -2.93,-1.58 -3.97,-2.75 -1.04,-1.17 -1.81,-2.56 -2.31,-4.16 -0.5,-1.61 -0.75,-3.37 -0.75,-5.28zm17.38 -2.48c0.03,-2.05 -0.48,-3.73 -1.53,-5.04 -1.06,-1.31 -2.51,-1.97 -4.36,-1.97 -1.04,0 -1.95,0.2 -2.75,0.61 -0.79,0.4 -1.47,0.93 -2.02,1.58 -0.55,0.65 -0.98,1.4 -1.29,2.24 -0.31,0.84 -0.51,1.7 -0.61,2.58l12.56 0zm31 -10.22c-1.27,4.74 -2.75,9.28 -4.45,13.63 -1.7,4.35 -3.35,8.24 -4.94,11.69l-4.09 0c-1.59,-3.44 -3.23,-7.34 -4.94,-11.69 -1.7,-4.34 -3.19,-8.89 -4.46,-13.63l4.87 0c0.39,1.59 0.85,3.29 1.39,5.09 0.54,1.8 1.1,3.59 1.7,5.36 0.6,1.77 1.21,3.48 1.83,5.13 0.62,1.66 1.2,3.13 1.75,4.43 0.55,-1.3 1.13,-2.77 1.75,-4.43 0.61,-1.66 1.22,-3.37 1.82,-5.13 0.6,-1.77 1.17,-3.56 1.7,-5.36 0.54,-1.8 1,-3.49 1.39,-5.09l4.67 0zm2.58 12.7c0,-2.24 0.33,-4.19 0.97,-5.86 0.65,-1.67 1.51,-3.06 2.58,-4.16 1.07,-1.11 2.31,-1.93 3.7,-2.48 1.39,-0.55 2.83,-0.83 4.28,-0.83 3.41,0 6.02,1.06 7.84,3.19 1.82,2.12 2.73,5.36 2.73,9.71 0,0.19 0,0.45 0,0.75 0,0.31 -0.01,0.59 -0.05,0.85l-17.33 0c0.19,2.63 0.96,4.63 2.29,5.99 1.33,1.36 3.4,2.05 6.23,2.05 1.59,0 2.93,-0.14 4.02,-0.41 1.09,-0.27 1.9,-0.54 2.45,-0.8l0.63 3.8c-0.55,0.29 -1.51,0.6 -2.89,0.93 -1.38,0.32 -2.95,0.49 -4.7,0.49 -2.21,0 -4.11,-0.34 -5.72,-1 -1.61,-0.67 -2.93,-1.58 -3.97,-2.75 -1.04,-1.17 -1.81,-2.56 -2.31,-4.16 -0.5,-1.61 -0.75,-3.37 -0.75,-5.28zm17.38 -2.48c0.03,-2.05 -0.48,-3.73 -1.53,-5.04 -1.06,-1.31 -2.51,-1.97 -4.36,-1.97 -1.04,0 -1.95,0.2 -2.75,0.61 -0.79,0.4 -1.47,0.93 -2.02,1.58 -0.55,0.65 -0.98,1.4 -1.29,2.24 -0.31,0.84 -0.51,1.7 -0.61,2.58l12.56 0zm20.59 -10.76c0.39,0 0.83,0.02 1.34,0.07 0.5,0.05 0.99,0.11 1.48,0.19 0.49,0.08 0.94,0.16 1.34,0.24 0.4,0.08 0.71,0.16 0.9,0.22l-0.78 3.95c-0.36,-0.13 -0.95,-0.29 -1.78,-0.46 -0.82,-0.18 -1.89,-0.27 -3.19,-0.27 -0.84,0 -1.68,0.09 -2.51,0.27 -0.83,0.18 -1.37,0.3 -1.63,0.37l0 21.27 -4.52 0 0 -24.24c1.07,-0.39 2.4,-0.75 3.99,-1.1 1.59,-0.34 3.38,-0.51 5.36,-0.51zm7.5 30.57c0.36,0.16 0.82,0.32 1.38,0.46 0.57,0.15 1.13,0.22 1.68,0.22 1.79,0 3.18,-0.4 4.19,-1.19 1,-0.79 1.91,-2.08 2.72,-3.87 -2.04,-3.9 -3.95,-8.03 -5.72,-12.39 -1.77,-4.36 -3.23,-8.78 -4.4,-13.26l4.87 0c0.36,1.46 0.79,3.03 1.29,4.72 0.5,1.69 1.06,3.42 1.68,5.21 0.61,1.78 1.28,3.57 1.99,5.35 0.72,1.78 1.46,3.51 2.24,5.16 1.23,-3.4 2.3,-6.78 3.21,-10.12 0.91,-3.34 1.77,-6.79 2.58,-10.32l4.68 0c-1.17,4.77 -2.47,9.36 -3.9,13.75 -1.43,4.4 -2.97,8.51 -4.62,12.34 -0.65,1.46 -1.32,2.72 -2.02,3.77 -0.7,1.06 -1.47,1.92 -2.31,2.61 -0.84,0.68 -1.79,1.18 -2.84,1.51 -1.06,0.33 -2.25,0.49 -3.58,0.49 -0.36,0 -0.73,-0.02 -1.12,-0.07 -0.39,-0.05 -0.77,-0.11 -1.14,-0.19 -0.38,-0.08 -0.72,-0.17 -1.02,-0.26 -0.31,-0.1 -0.53,-0.18 -0.66,-0.25l0.83 -3.65zm54.76 -24.68c-0.55,-0.45 -1.34,-0.89 -2.38,-1.31 -1.04,-0.42 -2.18,-0.63 -3.41,-0.63 -1.3,0 -2.41,0.23 -3.34,0.71 -0.92,0.47 -1.68,1.12 -2.26,1.94 -0.58,0.83 -1.01,1.81 -1.27,2.95 -0.26,1.13 -0.39,2.35 -0.39,3.65 0,2.96 0.73,5.24 2.19,6.84 1.46,1.61 3.4,2.41 5.84,2.41 1.23,0 2.26,-0.06 3.09,-0.17 0.82,-0.11 1.47,-0.23 1.92,-0.37l0 -16.02zm0 -17.03l4.53 -0.78 0 37.04c-1.04,0.29 -2.37,0.58 -3.99,0.88 -1.62,0.29 -3.49,0.44 -5.6,0.44 -1.95,0 -3.7,-0.31 -5.26,-0.93 -1.56,-0.62 -2.89,-1.5 -3.99,-2.63 -1.1,-1.13 -1.95,-2.52 -2.55,-4.16 -0.6,-1.64 -0.9,-3.48 -0.9,-5.53 0,-1.94 0.25,-3.73 0.75,-5.35 0.5,-1.62 1.24,-3.02 2.21,-4.18 0.97,-1.17 2.17,-2.08 3.58,-2.73 1.41,-0.65 3.02,-0.97 4.84,-0.97 1.46,0 2.75,0.19 3.87,0.58 1.12,0.39 1.95,0.76 2.5,1.12l0 -12.8zm20.88 33.73c1.07,0 2.02,-0.02 2.85,-0.07 0.83,-0.05 1.52,-0.14 2.07,-0.27l0 -7.54c-0.33,-0.16 -0.85,-0.3 -1.58,-0.41 -0.73,-0.11 -1.61,-0.17 -2.65,-0.17 -0.68,0 -1.4,0.05 -2.16,0.15 -0.76,0.1 -1.46,0.3 -2.09,0.61 -0.63,0.31 -1.16,0.73 -1.58,1.27 -0.42,0.54 -0.63,1.24 -0.63,2.12 0,1.62 0.52,2.75 1.56,3.38 1.04,0.63 2.45,0.95 4.23,0.95zm-0.39 -22.68c1.82,0 3.35,0.23 4.6,0.71 1.25,0.47 2.26,1.13 3.02,2 0.76,0.86 1.31,1.88 1.63,3.06 0.33,1.19 0.49,2.49 0.49,3.92l0 15.82c-0.39,0.06 -0.93,0.15 -1.63,0.27 -0.7,0.11 -1.48,0.22 -2.36,0.32 -0.88,0.1 -1.83,0.19 -2.85,0.27 -1.02,0.08 -2.04,0.12 -3.04,0.12 -1.43,0 -2.74,-0.15 -3.94,-0.44 -1.2,-0.29 -2.24,-0.75 -3.12,-1.39 -0.87,-0.63 -1.55,-1.47 -2.04,-2.51 -0.49,-1.04 -0.73,-2.28 -0.73,-3.75 0,-1.4 0.28,-2.6 0.85,-3.6 0.57,-1 1.34,-1.82 2.31,-2.43 0.97,-0.62 2.11,-1.07 3.41,-1.36 1.3,-0.29 2.66,-0.44 4.09,-0.44 0.46,0 0.93,0.02 1.41,0.07 0.49,0.05 0.95,0.11 1.39,0.19 0.44,0.08 0.82,0.15 1.14,0.22 0.32,0.06 0.55,0.11 0.68,0.15l0 -1.27c0,-0.75 -0.08,-1.49 -0.24,-2.22 -0.17,-0.73 -0.46,-1.38 -0.88,-1.95 -0.42,-0.57 -1,-1.02 -1.73,-1.36 -0.73,-0.34 -1.68,-0.51 -2.84,-0.51 -1.5,0 -2.8,0.1 -3.92,0.32 -1.12,0.21 -1.95,0.43 -2.51,0.65l-0.54 -3.75c0.58,-0.26 1.56,-0.51 2.92,-0.75 1.36,-0.24 2.84,-0.37 4.43,-0.37zm13.54 30.67c0.36,0.16 0.82,0.32 1.38,0.46 0.57,0.15 1.13,0.22 1.68,0.22 1.79,0 3.18,-0.4 4.19,-1.19 1,-0.79 1.91,-2.08 2.72,-3.87 -2.04,-3.9 -3.95,-8.03 -5.72,-12.39 -1.77,-4.36 -3.24,-8.78 -4.4,-13.26l4.87 0c0.36,1.46 0.79,3.03 1.29,4.72 0.5,1.69 1.06,3.42 1.68,5.21 0.61,1.78 1.28,3.57 1.99,5.35 0.72,1.78 1.46,3.51 2.24,5.16 1.23,-3.4 2.3,-6.78 3.21,-10.12 0.91,-3.34 1.77,-6.79 2.58,-10.32l4.68 0c-1.17,4.77 -2.47,9.36 -3.9,13.75 -1.43,4.4 -2.97,8.51 -4.62,12.34 -0.65,1.46 -1.32,2.72 -2.02,3.77 -0.7,1.06 -1.47,1.92 -2.31,2.61 -0.84,0.68 -1.79,1.18 -2.84,1.51 -1.06,0.33 -2.25,0.49 -3.58,0.49 -0.36,0 -0.73,-0.02 -1.12,-0.07 -0.39,-0.05 -0.77,-0.11 -1.14,-0.19 -0.37,-0.08 -0.71,-0.17 -1.02,-0.26 -0.31,-0.1 -0.53,-0.18 -0.66,-0.25l0.83 -3.65zm32.51 -7.35c0,0.88 -0.29,1.64 -0.88,2.29 -0.58,0.65 -1.38,0.97 -2.38,0.97 -1.01,0 -1.8,-0.33 -2.39,-0.97 -0.58,-0.65 -0.88,-1.41 -0.88,-2.29 0,-0.88 0.29,-1.64 0.88,-2.29 0.58,-0.65 1.38,-0.97 2.39,-0.97 1,0 1.8,0.33 2.38,0.97 0.58,0.65 0.88,1.41 0.88,2.29zm-455.46 -22.68l9.59 0 0 3.8 -9.59 0 0 11.68c0,1.27 0.1,2.31 0.29,3.14 0.19,0.82 0.49,1.48 0.88,1.94 0.39,0.47 0.88,0.8 1.46,1 0.58,0.19 1.27,0.29 2.05,0.29 1.36,0 2.45,-0.16 3.28,-0.46 0.83,-0.31 1.4,-0.53 1.73,-0.66l0.88 3.75c-0.45,0.22 -1.25,0.51 -2.39,0.85 -1.13,0.34 -2.43,0.51 -3.89,0.51 -1.72,0 -3.14,-0.22 -4.26,-0.66 -1.12,-0.44 -2.02,-1.1 -2.7,-1.97 -0.68,-0.88 -1.16,-1.95 -1.44,-3.24 -0.28,-1.28 -0.41,-2.77 -0.41,-4.45l0 -22.59 4.52 -0.78 0 7.84zm36.99 12.65c0,2.01 -0.29,3.83 -0.88,5.46 -0.58,1.62 -1.4,3.02 -2.45,4.18 -1.06,1.17 -2.31,2.07 -3.77,2.7 -1.46,0.63 -3.05,0.95 -4.77,0.95 -1.72,0 -3.31,-0.32 -4.77,-0.95 -1.46,-0.63 -2.71,-1.53 -3.77,-2.7 -1.05,-1.17 -1.88,-2.56 -2.46,-4.18 -0.58,-1.62 -0.88,-3.44 -0.88,-5.46 0,-1.98 0.29,-3.78 0.88,-5.43 0.58,-1.64 1.41,-3.04 2.46,-4.21 1.06,-1.17 2.31,-2.07 3.77,-2.7 1.46,-0.63 3.05,-0.95 4.77,-0.95 1.72,0 3.31,0.32 4.77,0.95 1.46,0.63 2.72,1.53 3.77,2.7 1.05,1.17 1.87,2.57 2.45,4.21 0.58,1.64 0.88,3.45 0.88,5.43zm-4.72 0c0,-2.85 -0.64,-5.12 -1.92,-6.79 -1.28,-1.67 -3.02,-2.5 -5.23,-2.5 -2.21,0 -3.95,0.83 -5.23,2.5 -1.29,1.67 -1.92,3.94 -1.92,6.79 0,2.86 0.64,5.12 1.92,6.79 1.28,1.68 3.02,2.51 5.23,2.51 2.21,0 3.95,-0.83 5.23,-2.51 1.28,-1.67 1.92,-3.93 1.92,-6.79zm11.1 -11.92c1.04,-0.26 2.41,-0.54 4.12,-0.83 1.7,-0.29 3.67,-0.44 5.91,-0.44 1.62,0 2.99,0.22 4.09,0.66 1.11,0.44 2.03,1.08 2.78,1.92 0.23,-0.16 0.58,-0.39 1.07,-0.68 0.49,-0.29 1.09,-0.57 1.8,-0.85 0.71,-0.28 1.51,-0.52 2.38,-0.73 0.88,-0.21 1.82,-0.32 2.83,-0.32 1.95,0 3.54,0.28 4.77,0.85 1.23,0.57 2.2,1.37 2.9,2.41 0.7,1.04 1.17,2.27 1.41,3.7 0.24,1.43 0.37,2.99 0.37,4.68l0 14.21 -4.53 0 0 -13.24c0,-1.49 -0.07,-2.77 -0.22,-3.84 -0.15,-1.07 -0.42,-1.96 -0.83,-2.68 -0.4,-0.71 -0.95,-1.24 -1.65,-1.58 -0.7,-0.34 -1.6,-0.51 -2.7,-0.51 -1.52,0 -2.78,0.2 -3.77,0.61 -0.99,0.4 -1.67,0.77 -2.02,1.09 0.26,0.85 0.45,1.77 0.58,2.78 0.13,1.01 0.19,2.06 0.19,3.17l0 14.21 -4.53 0 0 -13.24c0,-1.49 -0.08,-2.77 -0.24,-3.84 -0.16,-1.07 -0.44,-1.96 -0.85,-2.68 -0.41,-0.71 -0.96,-1.24 -1.66,-1.58 -0.7,-0.34 -1.58,-0.51 -2.65,-0.51 -0.45,0 -0.94,0.01 -1.46,0.05 -0.52,0.03 -1.01,0.07 -1.49,0.12 -0.47,0.05 -0.9,0.1 -1.29,0.17 -0.39,0.06 -0.65,0.11 -0.78,0.15l0 21.37 -4.53 0 0 -24.58zm64.26 11.92c0,2.01 -0.29,3.83 -0.88,5.46 -0.58,1.62 -1.4,3.02 -2.46,4.18 -1.06,1.17 -2.31,2.07 -3.77,2.7 -1.46,0.63 -3.05,0.95 -4.77,0.95 -1.72,0 -3.31,-0.32 -4.77,-0.95 -1.46,-0.63 -2.72,-1.53 -3.77,-2.7 -1.05,-1.17 -1.87,-2.56 -2.45,-4.18 -0.58,-1.62 -0.88,-3.44 -0.88,-5.46 0,-1.98 0.29,-3.78 0.88,-5.43 0.58,-1.64 1.4,-3.04 2.45,-4.21 1.06,-1.17 2.31,-2.07 3.77,-2.7 1.46,-0.63 3.05,-0.95 4.77,-0.95 1.72,0 3.31,0.32 4.77,0.95 1.46,0.63 2.71,1.53 3.77,2.7 1.06,1.17 1.88,2.57 2.46,4.21 0.58,1.64 0.88,3.45 0.88,5.43zm-4.72 0c0,-2.85 -0.64,-5.12 -1.92,-6.79 -1.28,-1.67 -3.02,-2.5 -5.23,-2.5 -2.21,0 -3.95,0.83 -5.23,2.5 -1.28,1.67 -1.92,3.94 -1.92,6.79 0,2.86 0.64,5.12 1.92,6.79 1.28,1.68 3.02,2.51 5.23,2.51 2.21,0 3.95,-0.83 5.23,-2.51 1.29,-1.67 1.92,-3.93 1.92,-6.79zm20.44 -13.19c0.39,0 0.84,0.02 1.34,0.07 0.51,0.05 1,0.11 1.49,0.19 0.49,0.08 0.94,0.16 1.34,0.24 0.4,0.08 0.71,0.16 0.9,0.22l-0.78 3.95c-0.36,-0.13 -0.95,-0.29 -1.78,-0.46 -0.83,-0.18 -1.89,-0.27 -3.19,-0.27 -0.85,0 -1.68,0.09 -2.51,0.27 -0.83,0.18 -1.37,0.3 -1.63,0.37l0 21.27 -4.52 0 0 -24.24c1.07,-0.39 2.4,-0.75 3.99,-1.1 1.59,-0.34 3.38,-0.51 5.35,-0.51zm18.79 0c0.39,0 0.84,0.02 1.34,0.07 0.5,0.05 1,0.11 1.49,0.19 0.49,0.08 0.93,0.16 1.33,0.24 0.41,0.08 0.71,0.16 0.9,0.22l-0.78 3.95c-0.36,-0.13 -0.95,-0.29 -1.77,-0.46 -0.83,-0.18 -1.89,-0.27 -3.19,-0.27 -0.84,0 -1.68,0.09 -2.51,0.27 -0.83,0.18 -1.37,0.3 -1.63,0.37l0 21.27 -4.53 0 0 -24.24c1.07,-0.39 2.4,-0.75 3.99,-1.1 1.59,-0.34 3.38,-0.51 5.35,-0.51zm31.79 13.19c0,2.01 -0.29,3.83 -0.88,5.46 -0.58,1.62 -1.4,3.02 -2.46,4.18 -1.05,1.17 -2.31,2.07 -3.77,2.7 -1.46,0.63 -3.05,0.95 -4.77,0.95 -1.72,0 -3.31,-0.32 -4.77,-0.95 -1.46,-0.63 -2.72,-1.53 -3.77,-2.7 -1.05,-1.17 -1.87,-2.56 -2.45,-4.18 -0.58,-1.62 -0.88,-3.44 -0.88,-5.46 0,-1.98 0.29,-3.78 0.88,-5.43 0.58,-1.64 1.4,-3.04 2.45,-4.21 1.06,-1.17 2.31,-2.07 3.77,-2.7 1.46,-0.63 3.05,-0.95 4.77,-0.95 1.72,0 3.31,0.32 4.77,0.95 1.46,0.63 2.72,1.53 3.77,2.7 1.06,1.17 1.88,2.57 2.46,4.21 0.58,1.64 0.88,3.45 0.88,5.43zm-4.72 0c0,-2.85 -0.64,-5.12 -1.92,-6.79 -1.29,-1.67 -3.03,-2.5 -5.24,-2.5 -2.21,0 -3.95,0.83 -5.23,2.5 -1.28,1.67 -1.92,3.94 -1.92,6.79 0,2.86 0.64,5.12 1.92,6.79 1.28,1.68 3.02,2.51 5.23,2.51 2.21,0 3.95,-0.83 5.24,-2.51 1.28,-1.67 1.92,-3.93 1.92,-6.79zm31.15 12.66c-0.91,-2.34 -1.88,-5.01 -2.9,-8.01 -1.02,-3.01 -1.95,-6.13 -2.8,-9.37 -0.84,3.24 -1.77,6.37 -2.78,9.37 -1,3 -1.96,5.67 -2.87,8.01l-3.95 0c-1.49,-3.35 -2.95,-7.16 -4.38,-11.44 -1.43,-4.28 -2.78,-8.91 -4.04,-13.87l4.87 0c0.32,1.52 0.71,3.18 1.16,4.96 0.46,1.79 0.94,3.57 1.44,5.36 0.5,1.78 1.03,3.5 1.58,5.16 0.55,1.66 1.07,3.1 1.56,4.33 0.55,-1.52 1.1,-3.14 1.63,-4.84 0.53,-1.7 1.04,-3.42 1.53,-5.16 0.49,-1.74 0.95,-3.44 1.39,-5.11 0.44,-1.67 0.82,-3.23 1.14,-4.7l3.75 0c0.29,1.46 0.65,3.02 1.07,4.7 0.42,1.68 0.88,3.38 1.36,5.11 0.49,1.73 1,3.45 1.53,5.16 0.54,1.7 1.08,3.32 1.63,4.84 0.49,-1.23 1,-2.67 1.53,-4.33 0.53,-1.66 1.06,-3.38 1.58,-5.16 0.52,-1.79 1.01,-3.57 1.46,-5.36 0.45,-1.78 0.84,-3.44 1.17,-4.96l4.67 0c-1.26,4.96 -2.61,9.59 -4.04,13.87 -1.43,4.29 -2.89,8.1 -4.38,11.44l-3.94 0zm20.35 -5.55c0.03,0.26 0.05,0.51 0.05,0.75 0,0.24 0,0.5 0,0.75 0,2.05 -0.3,4.07 -0.9,6.06 -0.6,2 -1.42,3.91 -2.45,5.72l-3.51 -1.12c0.81,-1.66 1.35,-3.34 1.61,-5.04 0.26,-1.7 0.39,-3.3 0.39,-4.79 0,-0.42 -0.01,-0.83 -0.02,-1.22 -0.01,-0.39 -0.04,-0.76 -0.07,-1.12l4.91 0z"/>
  <path class="fil0" d="M1010.51 35.2c-2.35,2.35 -3.53,5.22 -3.53,8.55 0,3.33 1.17,6.13 3.53,8.48 2.35,2.35 5.15,3.52 8.48,3.52 3.33,0 6.13,-1.17 8.48,-3.52 2.35,-2.35 3.53,-5.15 3.53,-8.48 0,-3.33 -1.18,-6.14 -3.53,-8.48 -2.35,-2.35 -5.15,-3.52 -8.48,-3.52 -3.33,0 -6.13,1.17 -8.48,3.46zm14.48 2.48c1.63,1.7 2.48,3.72 2.48,6.07 0,2.35 -0.85,4.37 -2.48,6 -1.63,1.63 -3.65,2.48 -6,2.48 -2.35,0 -4.37,-0.85 -6,-2.48 -1.7,-1.63 -2.55,-3.65 -2.55,-6 0,-2.35 0.85,-4.37 2.55,-6.07 1.63,-1.63 3.65,-2.48 6,-2.48 2.35,0 4.37,0.85 6,2.48zm-3.52 7.37c1.5,-0.58 2.42,-2.08 2.42,-3.72 0,-2.28 -1.83,-4.11 -4.11,-4.11l-4.7 0 0 13.05 2.15 0 0 -4.83 1.96 0 2.48 4.83 2.42 0 -2.61 -5.22zm-1.7 -5.67c1.04,0 1.96,0.85 1.96,1.96 0,1.04 -0.92,1.89 -1.96,1.89l-2.55 0 0 -3.85 2.55 0z"/>
  <g id="_2007005158624">
   <path class="fil2" d="M121.54 33.78l1.27 -33.78c-101.25,87.4 -107.52,161.89 -98.11,205.31l-0.11 0.02c7.54,40.55 32.6,57.52 32.6,57.52 -15.13,-18.37 -19.92,-42.5 -21.39,-53.76 -4.45,-102.61 85.74,-175.31 85.74,-175.31z"/>
   <path class="fil3" d="M0.53 131l-0 0c-1.25,9.75 -0.13,20.78 2.12,31.59 0.2,1.04 0.42,2.03 0.64,2.97 0.04,0.15 0.08,0.31 0.11,0.46 0.04,0.19 0.09,0.39 0.14,0.58 5.97,25.52 17.4,48.6 17.4,48.6 -0.13,-0.33 -0.25,-0.66 -0.38,-0.99 -13.4,-35.34 -17.47,-72.8 -4.61,-109.89 16.97,-48.97 47.59,-82.51 47.59,-82.51 -51.99,35.97 -61.2,78.59 -63.01,109.19z"/>
   <path class="fil0" d="M76.82 193.61c20,-50.83 75.96,-104.93 90.58,-118.86l-9.08 -35.29c-92.8,91.25 -104,147.22 -104,147.22 -11.22,35.25 -12.79,87.88 67.8,103.98 0,0 -74.56,-23.25 -45.3,-97.05z"/>
   <path class="fil1" d="M154.38 291.13c3.09,-0.42 6.38,-0.94 9.9,-1.55 0,0 -0.97,-0.03 -2.56,-0.2 -2.59,0.16 -5.09,0.03 -7.46,-0.3 0.02,0.74 0.06,1.44 0.12,2.05zm-21.23 -10.75c-43.46,-34.88 16.96,-109.51 50.38,-145.11 -2.6,-8.83 -6.34,-16.26 -9.12,-26.79 -114.89,105.21 -63.86,173.47 -63.86,173.47 10.11,10.37 21.87,12.18 43.83,9.18 -0.06,-0.61 -0.09,-1.31 -0.12,-2.05 -12.33,-1.69 -21.11,-8.7 -21.11,-8.7z"/>
  </g>
 </g>
</svg>
