<?xml version="1.0" encoding="UTF-8"?>
<!DOCTYPE svg PUBLIC "-//W3C//DTD SVG 1.1//EN" "http://www.w3.org/Graphics/SVG/1.1/DTD/svg11.dtd">
<!-- Creator: CorelDRAW 2021 (64-Bit) -->
<svg xmlns="http://www.w3.org/2000/svg" xml:space="preserve" width="1.25in" height="0.343276in" version="1.1" style="shape-rendering:geometricPrecision; text-rendering:geometricPrecision; image-rendering:optimizeQuality; fill-rule:evenodd; clip-rule:evenodd"
viewBox="0 0 1249.54 343.15"
 xmlns:xlink="http://www.w3.org/1999/xlink"
 xmlns:xodm="http://www.corel.com/coreldraw/odm/2003">
 <defs>
  <style type="text/css">
   <![CDATA[
    .fil4 {fill:black}
    .fil1 {fill:#215434}
    .fil6 {fill:#232323}
    .fil0 {fill:#77A652}
    .fil3 {fill:#FD4D2E}
    .fil2 {fill:#FD4D2E}
    .fil5 {fill:white}
    .fil7 {fill:#215434;fill-rule:nonzero}
   ]]>
  </style>
 </defs>
 <g id="Layer_x0020_1">
  <metadata id="CorelCorpID_0Corel-Layer"/>
  <path class="fil0" d="M283.23 86.34c5.87,-0.74 10.79,3.96 11.29,9.14 0.58,6.05 -3.86,10.98 -9.22,11.41 -6.17,0.49 -10.79,-3.83 -11.33,-9.26 -0.62,-6.17 3.89,-10.61 9.26,-11.29zm-43.19 80.11c1.09,3.68 -1.07,14.83 -2.12,18.57 -0.84,3 -1.68,5.3 -2.78,7.92 -0.51,1.22 -1.08,2.48 -1.65,3.64 -0.32,0.64 -1.2,3.18 -1.86,3.45 0.55,0.67 1.24,1.96 1.37,3.12 -0.56,-0.3 -0.54,-0.49 -1.02,-0.88 -0.29,-0.24 -0.72,-0.56 -1.02,-0.78 -0.18,1.2 -3.65,7.29 -4.42,8.6 -3.45,5.92 -6.16,10.37 -10.16,15.84 -4.01,5.47 -6.08,7.82 -10.02,12.6l-6.2 6.79c-0.58,0.57 -1.15,0.96 -1.72,1.53 -0.57,0.57 -0.96,1.15 -1.54,1.71 -0.59,0.57 -1.07,0.86 -1.69,1.55 -1.05,1.19 -2.05,2.22 -3.18,3.32l-5.03 4.72c-0.6,0.48 -1.05,0.89 -1.68,1.43 -4.34,3.72 -10.13,7.75 -15.1,10.9 -5.06,3.2 -10.93,6.45 -16.68,9.19 -8.59,4.1 -23.87,10.2 -33.87,11.5 -1.81,0.24 -3.58,0.9 -5.49,0.98l-0.07 0.26c0.04,-0.64 0.04,-0.17 -0.13,-0.35l-0.83 0.29c-0.34,0.06 -0.61,0.11 -0.95,0.16 -0.59,0.1 -1.17,0.18 -1.75,0.27 -8.97,1.21 -17.38,1.11 -26.2,-1.02 -14.32,-3.44 -22.96,-7.48 -34.03,-15.4 -0.57,-0.41 -5.76,-4.49 -6.8,-5.52 -1.33,-1.32 -5.11,-4.83 -6.23,-6.09 -2.64,-2.98 -5.06,-5.77 -7.42,-9.1l-3.29 -4.84c-0.45,0.47 -0.96,1.17 -1.39,1.7 -1.84,2.3 -3.86,4.32 -6.17,6.16 -0.6,0.47 -1.03,0.91 -1.62,1.36 -2.35,1.79 -4.85,3.39 -7.37,4.95 -2.34,1.45 -5.67,2.61 -7.45,4.74 -0.74,0.89 -1.98,2.3 -2.34,3.75 -1.05,4.26 3.16,4.46 6.73,5.47 6.97,1.99 14.97,2.33 22.15,1.48 1.76,-0.21 3.56,-0.51 5.21,-0.87 0.98,-0.22 4.24,-1.27 4.89,-1.05 0.09,0.85 -1.65,5.02 -2.05,5.92 -1.98,4.49 -4.57,8.69 -7.75,12.29 -0.33,0.37 -0.59,0.78 -0.88,1.16 -2.06,2.67 -4.4,4.92 -6.58,7.36 -3.24,3.62 -4.24,5.03 -6.56,9.42 -3.02,5.72 0.5,9.56 5.01,12.59 2.64,1.77 8.27,3.36 12.01,3.96 5.05,0.81 9.87,0.54 14.74,-0.35 3.33,-0.61 9.6,-2.57 11.75,-4.18 0.37,-5.28 -0.13,-11.31 -0.87,-16.35 -0.55,-3.68 -1.33,-7.17 -2.28,-10.69 -0.21,-0.76 -1.02,-2.66 -0.75,-3.22 0.63,0.14 0.69,1.11 0.87,1.73 2.13,7.47 3.46,15.24 3.67,23.08 0.08,2.94 -0.32,6.86 0.01,9.56 0.39,3.15 2.31,3.75 4.9,4.83 2.19,0.92 5.14,1.7 7.58,2.16 11.76,2.2 24.46,2.41 36.33,1.04 1.45,-0.17 7.47,-0.95 8.24,-1.5 4.31,-3.05 -0.59,-10.15 -2.31,-13.63 -3.6,-7.28 -1.7,-11.76 -4.75,-19.62 -0.45,-1.17 -1.39,-2.43 -1.64,-3.33 3.16,0.16 6.59,0.69 9.81,0.97 21,1.83 42.46,0.17 62.72,-5.49 3.77,-1.05 5.26,-2.1 3.4,0.81 -2.82,4.39 -5.02,8.91 -6.59,14 -1.09,3.54 -2.95,11.37 -2.29,15.26 0.39,2.34 1.07,2.38 2.23,3.59 3.31,3.47 8.75,6.99 14.22,9.34 8.98,3.87 20.18,5.03 30.12,2.8 3.73,-0.83 6.13,-1.35 7.71,-4.07 1.73,-3 0.5,-6.5 -0.51,-9.5 -3.16,-9.48 -6.6,-18.01 -6.67,-28.61 -0.02,-3.71 0.37,-7.32 1.07,-10.78 0.56,-2.75 1.4,-5.36 2.35,-7.94 0.14,-0.38 0.19,-0.66 0.57,-0.79l-0.78 2.89c-1.04,3 -1.77,6.09 -2.22,9.27 -1.96,13.89 1.99,23.05 6.06,35.43 0.29,0.9 0.56,2.06 0.98,2.82 1.47,0.67 5.32,1.26 7.14,1.49 2.61,0.32 5.59,0.4 8.21,0.16 7.41,-0.68 13.1,-2.93 18.44,-7.18 2.97,-2.37 2.64,-2.96 0.96,-4.98 -0.75,-0.89 -1.31,-1.57 -2.02,-2.32 -0.75,-0.79 -1.46,-1.37 -2.15,-2.04l-4.14 -4.39c-1.55,-1.68 -5.31,-8.18 -5.9,-11.16 -2.16,-11.01 -3.17,-16.66 -6.71,-27.43 -0.7,-2.14 -1.43,-4.21 -2.21,-6.32 -0.37,-1.01 -0.79,-2.11 -1.2,-3.13 -0.22,-0.56 -0.41,-1.05 -0.67,-1.49l-0.59 -1.02c-0.14,-0.19 -0.03,-0.08 -0.19,-0.2 -1.04,0.54 -1.9,1.73 -2.78,2.48 -0.49,0.41 -0.94,0.87 -1.43,1.27 -0.45,0.37 -0.85,1.08 -1.56,0.92 0.07,-0.54 2.73,-2.69 3.25,-3.15l6.51 -6.35c1.01,-1.1 1.95,-2.18 3.05,-3.31l1.51 -1.75c1.46,-1.77 2.97,-3.4 4.35,-5.26 8.04,-10.85 13.61,-20 18.22,-33.24 3.64,-10.47 5.74,-21.06 6.17,-32.48 0.15,-4.1 0.08,-8.38 -0.23,-12.46 -0.31,-4.02 -0.38,-8.05 -0.73,-12.1 -0.37,-4.32 0.44,-7.57 2.34,-10.45 3.44,-5.22 10.3,-7.44 15.53,-10.2 1.68,-0.89 7.14,-3.64 7.44,-5.44 -2.25,0.16 -3.06,-0.17 -4.02,-1.55 -0.7,-1.01 -1.21,-2.48 -1.59,-3.83 -0.6,-2.21 -0.87,-4.64 -1.2,-6.92 -0.13,-0.91 -0.4,-1.46 -0.55,-2.24 1.15,0.17 2.07,0.48 3.28,0.59 5.15,0.46 11.52,-0.95 16.5,-2.18 1.37,-0.34 2,-0.18 2.47,-1.32 5.74,-13.77 -0.05,-26.59 -12.91,-31.13 -1.93,-0.68 -3.44,-1.39 -5.55,-1.9 -10.92,-2.63 -22.5,-3.26 -33.61,-1.28 -6.51,1.16 -10.07,3.28 -15.03,7.29l-1.93 1.86c-5.54,6.08 -8.85,14.01 -9.35,24.05 -0.74,14.9 0.89,37.03 2.92,52.68 0.1,0.78 0.39,1.75 0.25,2.55 -0.05,0.26 -0.02,0.13 -0.1,0.32 -0.08,0.19 -0.09,0.16 -0.17,0.26z"/>
  <path class="fil1" d="M106.89 280.93c-6.97,0.66 -22.83,-2.94 -29.79,-5.16 -5.97,-1.9 -18.73,-7.19 -24.03,-10.87 0.78,0.24 2.12,1.02 2.98,1.44 2.92,1.42 6.06,2.84 9.09,4.05 8.47,3.37 17.8,6.19 26.84,8.1 2.61,0.55 12.76,2.45 14.9,2.43zm-64.98 -14.4c0.43,-0.82 1.21,-1.65 1.98,-2.13 0.81,-0.52 1.96,-0.92 3.12,-0.89 -0.46,0.31 -0.87,0.29 -1.56,0.56 -1.05,0.41 -2.26,1.19 -3.01,1.99 -0.3,0.31 -0.15,0.24 -0.52,0.47zm70.49 8.02c-0.26,-0.23 0.04,0.15 -0.29,-0.33 -0,-0 -0.14,-0.26 -0.15,-0.27 -1.65,-3.31 -2.74,-7.54 -2.93,-11.23 -0.17,-3.22 0.22,-7.15 1.02,-10.3 0.17,-0.64 0.85,-2.5 0.87,-2.77 0.04,0.69 -0.27,2.2 -0.37,3.03 -0.65,5.38 -0.48,10.89 0.51,16.2 0.36,1.94 1.04,3.92 1.33,5.67zm11.39 0.7c1.12,-0.23 2.74,-0.98 3.92,-1.37 10.11,-3.41 23.51,-10 32.34,-15.61 4.38,-2.78 8.61,-5.44 12.77,-8.49l6.06 -4.57c-0.2,0.43 -0.29,0.48 -0.63,0.78l-2.03 2.03c-0.5,0.45 -0.98,0.81 -1.44,1.28l-1.34 1.23c-9.82,8.95 -20.52,15.31 -33.15,20.07 -2.63,0.99 -13.87,4.79 -16.49,4.65zm71.94 -26.37c-0.85,-1.53 -2.66,-3.64 -3.78,-4.54 -1.05,-0.85 -3.4,-2.7 -4.9,-3.2 3.68,-0.39 8.51,3.46 8.67,7.75zm-11.33 -11.87c-0.02,-0.02 -0.04,-0.06 -0.06,-0.08l-2.38 -4.13c-1.29,-1.85 -2.77,-3.09 -3.13,-3.67 3.43,0.46 6.07,4.07 5.71,8.04l-0.14 -0.15zm7.59 -4.07c0.3,-0.49 1.23,-1.44 1.69,-1.84l10.81 -12.89c2.95,-3.62 4.68,-5.97 7.39,-9.67 1.17,-1.59 1.49,-1.78 2.94,-3.83 0.48,-0.68 0.89,-1.41 1.4,-1.98 -0.49,1.5 -1.78,3.11 -2.36,4.54 -0.94,2.35 -3.74,6.17 -5.24,8.31 -2.19,3.12 -6.77,8.65 -9.52,10.92 -0.59,0.49 -1.09,1.11 -1.7,1.68 -1.09,1.02 -4.27,3.98 -5.42,4.75zm-163.47 0.89l0.51 3.72 -0.72 -1.89c-0,0.7 0.49,1.74 0.23,2.24l0.2 0.57c0.13,-0.4 -0.13,-0.21 0.15,-0.15 0.17,0.04 0.19,0.13 0.3,0.27 0.18,0.23 0.39,0.57 0.56,0.82 0.45,0.63 0.8,1.09 1.21,1.64l13.95 16.65c0.61,0.54 3.36,3.63 4.05,4.17 -0.09,-0.81 -0.35,-1.57 -0.44,-2.5 -0.36,-3.99 1.21,-7.53 3.48,-10.56 0.55,-0.73 2.07,-2.64 2.7,-2.82 -0.45,0.17 -2.41,3.13 -2.94,4.07 -1.73,3.07 -2.98,8.04 -2.43,11.6 0.26,1.7 2.5,2.63 3.17,3.93 -1.83,-0.98 -8.63,-7.28 -10.29,-9 -3.18,-3.29 -6.08,-6.53 -8.8,-10.29 -1.81,-2.5 -8.01,-11.61 -8.72,-14.08 0.71,0.64 2.89,4.56 3.63,4.99 -0.35,-0.81 -1.87,-5.72 -2.05,-6.91 -0.02,-0.13 -0.06,-0.46 -0.09,-0.56 -0.15,-0.43 -0.02,-0.19 -0.27,-0.44 -0.87,-1.46 -1.1,-2.9 -2.5,-3.86 -2.82,-1.94 -7.45,-0.4 -7.36,3.84 0.04,2.01 4.86,11.64 5.82,13.41 0.77,1.41 1.43,2.73 2.24,4.12l2.36 4.01 3.29 4.84c2.36,3.33 4.78,6.12 7.42,9.1 1.12,1.26 4.9,4.77 6.23,6.09 1.04,1.04 6.23,5.12 6.8,5.52 11.07,7.93 19.71,11.96 34.03,15.4 8.83,2.12 17.23,2.23 26.2,1.02 0.58,-0.08 1.16,-0.17 1.75,-0.27 0.33,-0.06 0.61,-0.1 0.95,-0.16l0.83 -0.29c-0.19,-0.82 -0.66,-1.62 -0.91,-2.72 -0.62,-2.77 -0.17,-6.6 1.55,-8.64 -1.15,5.82 -1.45,5.05 -0.44,11.46 1.91,-0.08 3.69,-0.74 5.49,-0.98 10,-1.3 25.27,-7.4 33.87,-11.5 5.75,-2.74 11.62,-5.99 16.68,-9.19 4.97,-3.15 10.76,-7.18 15.1,-10.9 0.63,-0.54 1.08,-0.94 1.68,-1.43l5.03 -4.72c1.13,-1.1 2.13,-2.13 3.18,-3.32 0.62,-0.7 1.1,-0.98 1.69,-1.55 0.58,-0.56 0.96,-1.14 1.54,-1.71 0.57,-0.58 1.14,-0.96 1.72,-1.53l6.2 -6.79c3.94,-4.78 6.01,-7.13 10.02,-12.6 4,-5.47 6.71,-9.93 10.16,-15.84 0.77,-1.31 4.24,-7.41 4.42,-8.6 -0.71,-0.75 -3.4,-2.05 -4.8,-2.48 -3.6,-1.11 -4.05,-0.5 -6.37,-0.8 2.91,-1.9 6.51,-2.33 9.67,-0.2 1.07,0.72 1.36,1.25 2.16,2.02 0.66,-0.27 1.54,-2.81 1.86,-3.45 0.57,-1.16 1.14,-2.42 1.65,-3.64 1.09,-2.62 1.94,-4.92 2.78,-7.92 1.05,-3.74 3.21,-14.89 2.12,-18.57 -0.2,-1.59 -3.12,-4.53 -5.6,-3.34 -3.82,1.83 -2.75,6.58 -2.87,9.16 -0.04,0.72 -0.44,1.14 -0.74,1.72 -1.32,2.62 -3.11,4.87 -4.91,7.14 -0.38,0.48 -0.67,0.85 -1.01,1.29 -1.12,1.43 -6.16,7.47 -7.79,9.14 -0.48,0.5 -0.71,0.67 -1.13,1.17 -1.25,1.48 -2.56,2.65 -3.55,3.76 -2,2.22 -4.54,4.48 -5.83,5.95 -0.9,1.02 -1.68,1.51 -2.5,2.38l-1.89 1.76c-1.87,1.8 -9.71,7.39 -11.69,8.62 -12.62,7.88 -31.74,16.05 -46.43,20.6 -7.96,2.46 -14.68,4.3 -22.89,5.95 -2.82,0.57 -5.49,0.86 -8.39,1.23 -16.74,2.11 -37.66,1.17 -53.72,-1.34 -4.06,-0.64 -20.09,-3.69 -23.9,-4.97 -3.59,-1.2 -4.06,-1.77 -6.67,-2.85z"/>
  <path class="fil2" d="M77.61 62.62c-1.9,28.26 2.56,56.01 11.04,82.44 1.1,3.42 2.43,6.75 3.51,10.04 1.13,-0.07 36.58,-9.17 37.27,-9.35 3.79,-0.99 36.54,-9.07 37.05,-9.49 -1.09,-2.43 -2.1,-4.76 -3.23,-7.15 -4.53,-9.56 -9.63,-18.02 -16.03,-26.22 -1.2,-1.54 -3.49,-4.5 -4.73,-5.83l-3.68 -4.18c-0.42,-0.5 -0.88,-0.91 -1.31,-1.39 -1.74,-1.97 -5.8,-5.9 -7.93,-7.91 -5.52,-5.22 -14.76,-12.11 -21.07,-15.9 -6.25,-3.75 -11.21,-5.81 -18.38,-8.02 -1.2,-0.37 -3.14,0.25 -4.37,0.55 -1.97,0.47 -6.69,1.63 -8.14,2.42z"/>
  <path class="fil2" d="M18.24 168.75c-0,4.13 0.41,17.37 1.79,20.27 1.13,-0.4 2.8,-1.29 3.92,-1.84l51.33 -24.77c2.61,-1.24 5.44,-2.52 7.93,-3.83 -0.15,-0.56 -0.43,-1.13 -0.63,-1.77l-1.71 -5.74c-6.6,-23.31 -10.19,-50.23 -8.39,-74.71 0.15,-2.03 0.25,-3.97 0.46,-5.93 0.2,-1.89 0.5,-4.05 0.62,-5.96 -2.96,0.92 -10.07,5.43 -12.64,7.34 -4.58,3.4 -6.64,5.47 -10.51,9.39 -0.77,0.78 -1.49,1.68 -2.3,2.57 -4.97,5.48 -10.71,14.42 -14.23,20.84 -9.04,16.49 -15.62,41.58 -15.64,64.14z"/>
  <path class="fil3" d="M175.34 136.35l32.82 2.31c-1.75,-3.01 -1.87,-3.53 -4.01,-6.84 -1.51,-2.32 -3.02,-4.43 -4.54,-6.57l-11.12 -13.79c-0.44,-0.5 -0.9,-0.99 -1.34,-1.51 -1.42,-1.69 -7.84,-8.26 -9.58,-9.78 -1.39,-1.22 -2.95,-2.79 -4.42,-3.98l-6.08 -5.03c-3.42,-2.76 -9.13,-6.95 -12.91,-9.3 -10.15,-6.3 -17.73,-10.66 -29.53,-14.89 -2.99,-1.07 -14.65,-4.63 -17.74,-4.32 0.37,0.08 0.89,0.46 1.38,0.64 5.51,2.08 10.46,5.81 15.24,9.14 1.83,1.28 3.45,2.44 5.18,3.75 4.6,3.5 10.25,8.27 14.27,12.4 0.74,0.76 1.53,1.44 2.26,2.21l10.3 11.91c8.23,10.73 12.64,18.24 18.45,30.58 0.45,0.95 0.91,2.23 1.38,3.05z"/>
  <path class="fil4" d="M153.32 199.22c0.4,-2.99 -0.98,-6.32 -2.44,-7.78 -0.95,-0.96 -1.6,-1.63 -2.98,-2.3 -4.26,-2.07 -8.42,-1.71 -11.91,1.09 -1.61,1.29 -3.26,3.66 -3.68,6.63 -0.87,6.25 3.99,10.72 9.34,11.38 6.35,0.78 10.93,-3.54 11.66,-9.02z"/>
  <path class="fil4" d="M59.77 223.87c0.3,3.77 2.16,7.63 4.85,9.69 3.01,2.3 7.52,2.02 9.97,-1.55 4.15,-6.06 1.52,-17.54 -6.49,-18.85 -5.39,-0.88 -8.76,5.27 -8.34,10.71z"/>
  <path class="fil5" d="M291.45 95.35c-0.54,1.87 -2.45,3.56 -4.97,2.87 -5.11,-1.39 -3.1,-9.23 2.14,-7.82 1.76,0.48 3.52,2.57 2.83,4.94zm-8.22 -9.01c-5.37,0.67 -9.88,5.12 -9.26,11.29 0.54,5.43 5.16,9.75 11.33,9.26 5.36,-0.43 9.8,-5.36 9.22,-11.41 -0.5,-5.18 -5.42,-9.87 -11.29,-9.14z"/>
  <path class="fil2" d="M16.75 189.61c-0.05,-3.36 -0.44,-6.91 -0.72,-10.24 -2.92,-35.03 7.79,-69.25 29.51,-94.51 2.77,-3.23 7.55,-8.39 10.63,-11.3 0.7,-0.67 1.64,-1.44 2.26,-2.17 -2.1,1.03 -9.46,7.88 -11.02,9.53 -3.24,3.42 -6.4,7.12 -9.34,11.24 -12.87,18.04 -20.12,36.84 -23.02,59.59 -0.81,6.39 -0.96,13.01 -0.77,19.58 0.14,4.94 0.57,9.29 1.4,14.07 0.15,0.86 0.74,3.62 1.06,4.23z"/>
  <path class="fil3" d="M210.47 137.47c-0.48,-2.6 -10.9,-17.34 -13.22,-20.3l-5.05 -6.19c-0.87,-1.04 -1.73,-1.96 -2.59,-2.97 -0.88,-1.04 -1.79,-1.85 -2.7,-2.85 -1.52,-1.65 -7.99,-8.03 -9.92,-9.58l-4.53 -3.87c-10.02,-7.96 -17.79,-13.51 -30.52,-19.86 -8.02,-4 -15.54,-6.81 -24.29,-9.28 -1.97,-0.55 -7.25,-2.09 -9.07,-2.13l8.61 2.45c18.06,5.32 37.32,15.66 51.43,26.84 1.08,0.85 1.98,1.6 3.06,2.49 1.45,1.22 7.65,6.58 8.87,7.92 1.83,2 3.72,3.63 5.49,5.61 0.43,0.48 0.89,0.91 1.31,1.39l6.58 7.51c5.22,5.96 10.91,14.32 15.29,21.13l1.23 1.68z"/>
  <path class="fil4" d="M107.8 186.44l1.92 -0.04 17.03 -3.54c5.55,-1.24 11.04,-2.69 16.54,-4.05 5.55,-1.37 10.98,-2.7 16.45,-4.13 1.53,-0.4 14.54,-4.04 15.88,-4.69l-1.09 0.13c-0.16,-0.38 -0.16,0.3 0.05,-0.13 0.15,-0.31 0.17,0.11 0.09,-0.16 -2.06,0.17 -15.19,3.08 -17.3,3.56 -5.69,1.29 -11.09,2.74 -16.72,4.14 -5.58,1.39 -11.16,2.7 -16.6,4.24 -2.74,0.78 -5.41,1.56 -8.1,2.33 -2.61,0.75 -5.61,1.76 -8.13,2.34z"/>
  <path class="fil4" d="M305.08 56.29c-0.09,-3.02 0.41,-4.39 1.44,-6.88 2.14,-5.14 5.43,-11.65 9.2,-15.78 -0.43,4.42 -4.86,12.43 -4.6,15.73 -0.04,-1.14 5.08,-9.43 6.1,-11.48 0.79,-1.59 2.28,-4.85 1.77,-6.97 -0.58,-2.4 -2.74,-2.76 -5.01,0.07l-0.99 1.17c-1.01,1.26 -1.92,2.43 -2.78,3.86 -2.42,4.05 -4.01,7.87 -5.17,12.57 -0.49,2 -1.09,5.37 -0.13,7.39 0.15,0.31 0.08,0.17 0.17,0.3z"/>
  <path class="fil4" d="M202.59 176.71c-3.03,0.88 -1.03,8.22 -0.13,10.42 0.76,1.86 2.17,5.01 3.71,6.17 3.49,2.63 4.09,-0.97 3.72,-4.27 -0.4,-3.51 -2.27,-9.22 -4.97,-11.54 -0.41,-0.35 -1.63,-0.99 -2.33,-0.78z"/>
  <path class="fil5" d="M123.8 275.26c2.62,0.14 13.86,-3.66 16.49,-4.65 12.64,-4.76 23.33,-11.11 33.15,-20.07l1.34 -1.23c0.46,-0.47 0.94,-0.82 1.44,-1.28l2.03 -2.03c0.35,-0.3 0.44,-0.36 0.63,-0.78l-6.06 4.57c-4.15,3.04 -8.39,5.71 -12.77,8.49 -8.82,5.6 -22.22,12.2 -32.34,15.61 -1.18,0.4 -2.8,1.15 -3.92,1.37z"/>
  <path class="fil4" d="M83.92 183.64c-1.05,0.25 -2.59,1.02 -3.68,1.46 -6.64,2.71 -18.08,7.77 -24.28,10.93 -2.26,1.15 -4.61,2.09 -6.9,3.25 -2.21,1.12 -4.49,2.17 -6.73,3.29 -2.29,1.13 -4.47,2.24 -6.76,3.39 -1.27,0.65 -5.77,2.77 -6.58,3.43l1.34 -0.26c-0.28,0.18 -0.17,0.1 -0.32,0.26 0.92,-0.24 5.93,-2.47 7.19,-3.02l13.98 -6.2c2.25,-1 4.59,-2.09 6.83,-3.19 2.29,-1.12 4.66,-2.09 6.95,-3.21 4.66,-2.28 8.88,-4.24 13.5,-6.67l6.49 -3.44 -3.29 1.29 2.28 -1.31z"/>
  <path class="fil4" d="M105.49 178.43l2.33 -0.4c-0.17,0.15 0.1,0.02 -0.3,0.2l-1.19 0.34c0.93,-0 3.13,-0.59 4.22,-0.81 9.94,-2.09 20.09,-4.51 29.91,-6.93 5.64,-1.39 11.35,-2.59 16.98,-4.01 2.82,-0.71 5.62,-1.44 8.42,-2.14 2.52,-0.63 5.84,-1.47 7.96,-2.52 -4.25,-0.09 -29.93,6.62 -34.6,7.71 -9.97,2.34 -19.69,4.81 -29.55,7.43 -1.09,0.29 -3.29,1.03 -4.18,1.13z"/>
  <path class="fil4" d="M76.44 56.7l-0.37 -1.82c0.36,0.68 0.71,1.45 1.04,2.11l-0.46 -2.08c1.11,2.22 0.55,1.89 0.55,2.94 0,1.23 0.85,2.08 1.35,2.66l0.01 -0.46 0.61 0.61 -0.22 -1.38c-0.01,0.85 1.11,1.31 2.04,1.26 0.46,-0.59 0.69,-0.89 0.29,-1.82 -1.41,-3.27 -1.73,-1.79 -2.38,-2.9 -0.28,-0.48 -0.57,-1.37 -0.6,-1.99l0.97 2.12c-0.12,-1.58 -2.79,-11.27 -3.67,-13.22 -0.53,-1.17 -1.09,-3.03 -2.77,-2.88 -3.07,0.28 1.28,10.66 2,12.85 0.46,1.4 0.91,2.82 1.61,3.99z"/>
  <path class="fil4" d="M102.33 188.94c-0.62,-2.1 -1.59,-4.55 -2.1,-6.51 0.09,2.11 3.11,11.24 3.13,12.78 -0.04,-0.63 -1.39,-4.64 -1.74,-5.7 -0.61,-1.89 -1.16,-4.01 -1.82,-5.71 0.09,1.31 2.91,11.52 3.47,13.54 1.23,4.46 2.44,8.84 3.69,13.25 2.47,8.71 5.28,17.41 7.87,25.94l-2.82 -11.35c0.71,2.39 3.24,10.92 3.74,11.85 -0.09,-0.96 -1.42,-5.74 -1.75,-7.06 -2.93,-11.47 -6.11,-23.01 -9.59,-34.29 -0.69,-2.24 -1.4,-4.48 -2.07,-6.74z"/>
  <path class="fil4" d="M323.4 46.44c2.51,-3.2 4.93,-6.02 7.65,-8.53l2.13 -1.93c1.68,-1.43 5.4,-4.19 7.52,-4.83 -0.84,2.64 -7.01,9 -7.44,9.95 1.07,-0.67 2.96,-2.47 4.02,-3.31 0.44,-0.35 0.49,-0.44 0.89,-0.87l2.86 -2.83c0.7,-0.71 2.94,-3.44 1.4,-4.94 -1.86,-1.81 -8.31,3.11 -9.73,4.32 -4,3.39 -7.47,7.95 -9.3,12.98z"/>
  <path class="fil4" d="M68.4 60.66c0.05,-0.26 -0.03,0.03 0,-0.2l0.05 -0.26c0,-0.02 0.01,-0.07 0.02,-0.1 0.26,0.77 1.03,1.02 1.95,0.75 0.42,-0.92 0.04,-1.22 -0.24,-2.27 -0.91,-3.5 -2.94,-11.5 -4.3,-14.38 -0.37,-0.79 -0.69,-1.24 -1.77,-1.35 -4.62,-0.5 3.75,16.66 4.27,17.82z"/>
  <path class="fil4" d="M84.98 195.04c-0.81,0.19 -2.31,0.92 -3.14,1.28 -1.07,0.46 -2.04,0.88 -3.12,1.35 -2.04,0.89 -4.11,1.75 -6.14,2.66 -4.05,1.8 -8.16,3.54 -12.14,5.47 -3.96,1.92 -8.14,3.6 -12.01,5.6 -1.93,0.99 -3.96,1.94 -5.91,2.88 -0.55,0.27 -5.49,2.49 -5.88,3.04l3.51 -1.39 -3.59 1.85c0.92,-0.2 11.2,-4.76 12.43,-5.27 3.09,-1.29 35.79,-16.32 35.91,-16.99l-3.79 1.52 3.87 -1.98z"/>
  <path class="fil5" d="M28.54 237.92l-0.2 -0.69c-0.74,-0.43 -2.92,-4.35 -3.63,-4.99 0.71,2.48 6.91,11.58 8.72,14.08 2.72,3.77 5.62,7 8.8,10.29 1.66,1.72 8.46,8.02 10.29,9 -0.68,-1.3 -2.91,-2.23 -3.17,-3.93 -0.55,-3.55 0.7,-8.52 2.43,-11.6 0.53,-0.94 2.49,-3.9 2.94,-4.07 -0.64,0.18 -2.16,2.09 -2.7,2.82 -2.27,3.03 -3.84,6.57 -3.48,10.56 0.08,0.93 0.35,1.69 0.44,2.5 -0.7,-0.54 -3.45,-3.63 -4.05,-4.17l-13.95 -16.65c-0.41,-0.55 -0.76,-1.01 -1.21,-1.64 -0.17,-0.24 -0.38,-0.59 -0.56,-0.82 -0.11,-0.15 -0.14,-0.23 -0.3,-0.27 -0.28,-0.07 -0.03,-0.25 -0.15,0.15l-0.2 -0.57z"/>
  <path class="fil4" d="M123.71 162.4c0.39,0.82 0.36,1.25 1.45,0.99 0.63,-1.91 -0.33,-5.02 -1.24,-6.46 -1.07,-1.7 -3.73,-2.61 -5.6,-0.78 -0.93,0.92 -0.77,1.88 -0.49,3.21 0.4,1.94 1.16,4.88 3.44,4.72 0.55,-0.04 1.12,-0.29 1.46,-0.55 0.47,-0.35 0.61,-0.72 0.98,-1.14z"/>
  <path class="fil4" d="M93.8 169.97l0.2 -1.17c0.08,0.41 0.52,1.17 0.7,1.57 -0.02,-2.01 -0.31,-5.4 -1.1,-6.97 -1.39,-2.79 -8.54,-2.48 -4.34,6.23 0.45,0.94 1.04,1.44 2.06,1.73 1.41,0.41 2.12,-0.33 2.47,-1.39z"/>
  <path class="fil4" d="M91.4 188.36c-0.31,-0.94 -0.83,-2.23 -1.09,-3.07l0.85 4.09c0,-0.43 -0.24,-1 -0.52,-1.31 0.28,2.41 6.01,22.21 6.77,24.88 1.17,4.06 2.39,8.12 3.55,12.15l3.64 11.93 -1.39 -5.77c0.02,1.02 1.96,5.53 1.88,6.19 -0.01,-1.01 -1.26,-5.25 -1.63,-6.61l-5.44 -19.73c-1.25,-4.38 -2.31,-8.81 -3.64,-13.16l-2.99 -9.59z"/>
  <path class="fil4" d="M178.3 167.74c-0.24,-0.74 -1.17,-2.85 -1.13,-3.37 0.02,0.91 1.2,4.77 1.54,6.02 1.68,6.11 10.61,37.08 12.57,41.55l-0.76 -3.29c0.12,0.68 0.55,1.95 0.94,2.5 -0.17,-1.52 -1.15,-4.52 -1.6,-6.15 -0.56,-2.02 -1.14,-4.03 -1.67,-6.04 -1.06,-4 -2.27,-8.03 -3.43,-12.01 -1.17,-4 -2.49,-7.78 -3.66,-11.78 -0.37,-1.27 -3.83,-11.37 -3.77,-11.61l0.98 4.18z"/>
  <path class="fil4" d="M97.53 159.07c1.03,0.07 7.26,-1.5 8.76,-1.83 2.95,-0.66 5.88,-1.35 8.81,-2.02 13.82,-3.18 29.72,-7.05 43.43,-10.74 2.77,-0.75 5.8,-1.59 8.5,-2.24 -1.15,0.03 -16.06,3.57 -17.54,3.9 -11.39,2.6 -23.44,5.52 -34.78,8.41l-17.18 4.51z"/>
  <path class="fil4" d="M24.52 191.83c8.3,-3.6 19.22,-9.05 27.48,-13.16 4.57,-2.27 9.14,-4.5 13.59,-6.86 1.71,-0.91 12.74,-6.6 13.3,-7.14 -1.18,0.32 -12.49,5.8 -13.86,6.44 -8.23,3.9 -19.18,9.42 -27.22,13.68 -2.22,1.17 -4.47,2.28 -6.68,3.48l-6.62 3.55z"/>
  <path class="fil4" d="M157.56 207.76c0.78,-0.62 2.13,-2.89 2.57,-3.89 -0.18,1.38 -1.44,2.92 -1.89,4.03 1.68,-1.24 3.53,-6.12 3.89,-8.46 0.6,-3.88 -0.26,-7.3 -1.75,-10.31 -1.52,-3.07 -3.4,-4.82 -5.91,-6.56 -1.81,-1.25 -6.5,-3.27 -9.38,-2.89 0.44,-0.14 3.86,0.96 4.44,1.2 7.04,2.97 11.53,10.03 11,18.02 -0.12,1.74 -0.48,3.31 -1,4.83 -0.82,2.41 -1.5,2.87 -1.98,4.03z"/>
  <path class="fil5" d="M191.99 232.95c1.14,-0.78 4.32,-3.73 5.42,-4.75 0.61,-0.57 1.12,-1.19 1.7,-1.68 2.75,-2.27 7.33,-7.8 9.52,-10.92 1.5,-2.14 4.3,-5.97 5.24,-8.31 0.57,-1.43 1.87,-3.05 2.36,-4.54 -0.51,0.57 -0.92,1.29 -1.4,1.98 -1.45,2.05 -1.77,2.24 -2.94,3.83 -2.72,3.7 -4.44,6.04 -7.39,9.67l-10.81 12.89c-0.46,0.4 -1.39,1.35 -1.69,1.84z"/>
  <path class="fil4" d="M89.64 54.47l-0.4 -2.03c0.18,0.56 0.57,1.11 0.73,1.79 0.21,0.87 -0.05,1.64 0.96,2.84 0.39,0.47 2.04,0.99 2.77,0.78 0.43,-0.93 0.03,-1.54 -0.83,-2.88 -0.62,-0.97 -1.62,-1.61 -2.71,-0.91 -0.26,-1.77 -1.05,-4.18 -1.56,-5.93 -1.48,-5.19 -2.58,-9.22 -4.7,-14.26 -0.32,-0.76 -0.91,-1.88 -1.14,-2.56l0.29 1.8c-0.06,-0.41 -0.63,-1.49 -0.88,-1.83 0.27,4.2 4.95,17.03 6.79,21.78 0.19,0.49 0.37,1.05 0.68,1.4z"/>
  <path class="fil4" d="M288.72 91.93c1.93,-0.49 2.68,2.57 0.67,3.05 -1.95,0.46 -2.92,-2.47 -0.67,-3.05zm2.73 3.42c0.69,-2.38 -1.07,-4.47 -2.83,-4.94 -5.23,-1.42 -7.25,6.43 -2.14,7.82 2.52,0.68 4.43,-1 4.97,-2.87z"/>
  <path class="fil4" d="M58.32 12.42l0.15 -3.8c-0.97,2.3 -3.11,24.87 -2.92,28.22l1.11 -8.12 -0.51 7.79c0.38,-0.87 1.13,-7.52 1.36,-9.43l0.17 -1.08c0.07,-0.21 0.1,-0.26 0.16,-0.35 -0.02,2.45 1.45,3.64 1.45,3.64 0.17,0.62 -0.08,-0.18 0.28,-0.01 0.13,0.06 0.22,0.24 0.52,0.41l-0.24 -0.79 0.76 0.29c1.99,0.47 0.63,-2.14 0.06,-2.93 -0.47,-0.66 -1.77,-1.5 -2.6,-0.91 -0.04,0.03 -0.15,0.13 -0.18,0.16l-0.18 0.18c0.29,-4.02 1.7,-13.79 1.35,-17.22 0.04,0.32 -0.22,1.36 -0.3,1.85l-0.39 1.98c-0.01,0.03 -0.03,0.08 -0.05,0.12z"/>
  <path class="fil5" d="M106.89 280.93c-2.14,0.02 -12.29,-1.89 -14.9,-2.43 -9.05,-1.9 -18.37,-4.73 -26.84,-8.1 -3.03,-1.21 -6.17,-2.63 -9.09,-4.05 -0.86,-0.42 -2.2,-1.2 -2.98,-1.44 5.31,3.67 18.07,8.97 24.03,10.87 6.96,2.22 22.81,5.81 29.79,5.16z"/>
  <path class="fil4" d="M102.75 167.73l-0.41 -1.9c0.93,0.75 1.38,1.33 2.44,1.46 4.88,0.58 3.62,-4.09 1.29,-6.32 -0.74,-0.71 -1.24,-1.27 -2.69,-1.07 -2.93,0.41 -2.86,3.01 -2.13,5.21 0.16,0.49 0.42,1.03 0.62,1.41l0.8 1.14c0.02,0.02 0.05,0.05 0.08,0.07z"/>
  <path class="fil4" d="M78.78 177.42c0.35,-0.08 1.37,-0.53 1.62,-0.81 0.28,-0.33 0.17,-0.32 0.58,-0.66 0.43,-0.36 0.27,-0.29 0.76,-0.02 1.02,-7.06 -3.58,-8.2 -5.4,-6.65 -1.72,1.46 -1.08,2.89 -0.2,4.82l1.89 3.11c0.45,0.36 0.01,0.02 0.3,-0.03 0.27,-0.04 0.04,0.01 0.45,0.24z"/>
  <path class="fil4" d="M148.27 155.04c0.45,0.3 0.22,0.32 0.65,0.62 0.31,-3.88 -2.17,-7.05 -4.67,-6.48 -0.9,0.2 -1.74,0.96 -1.82,1.96 -0.16,1.95 1.03,4.59 1.91,5.66 1.44,1.74 3.93,1.1 3.92,-1.76z"/>
  <path class="fil4" d="M67.1 182.87l0.91 0.72c0.38,-2.37 0.54,-4.14 -0.75,-6.02 -1.03,-1.51 -3.16,-2.7 -4.93,-0.9 -2.18,2.22 0.8,5.1 1.72,6.27 0.13,0.17 0.89,1.98 2.33,1.03 0.51,-0.33 0.44,-0.55 0.72,-1.1z"/>
  <path class="fil4" d="M49.93 190.89l0.28 -0.48c0.69,0.91 2.09,0.81 2.4,-0.43 0.33,0.14 0.24,0.12 0.54,0.28 0.45,-1.89 0.71,-3.29 -0.09,-5.14 -1.5,-3.48 -6.38,-3.2 -5.62,2.09 0.24,1.66 1.48,3.07 2.5,3.68z"/>
  <path class="fil4" d="M152.94 148.09c-2.2,0.55 -2.26,2.71 -1.48,4.72 0.65,1.67 1.25,4.06 3.74,3.38 2.76,-0.75 1.88,-3.44 1.64,-4.82 -0.19,-1.08 -0.52,-2.03 -1.12,-2.54 -0.58,-0.5 -1.7,-1.01 -2.78,-0.74z"/>
  <path class="fil4" d="M196.67 206.08l0.15 -0.64c-0.07,-1.21 -1.01,-4.01 -1.38,-5.34 -2.74,-9.9 -6.16,-22.07 -9.39,-31.65 -0.15,-0.43 -1.11,-3.52 -1.33,-3.63 -0.17,-0.08 0.14,0.54 -0.37,-0.48 -0.02,-0.04 -0.09,-0.18 -0.11,-0.21 -0.02,-0.03 -0.05,-0.07 -0.07,-0.1 -0.02,-0.03 -0.05,-0.07 -0.07,-0.1 0.31,2.45 5.23,18.86 6,21.46 1.04,3.48 2.18,6.92 3.29,10.39l3.29 10.3z"/>
  <path class="fil4" d="M129.06 161.93c0.05,-0.35 -0.08,-0.33 0.13,-0.63 0.58,0.47 1.57,0.28 2.21,-0.05 0.77,-0.39 0.83,-0.96 0.96,-1.89 0.01,0.03 0.54,1.12 0.91,1.28 0.55,-2.23 -1.45,-7.47 -4.89,-6.49 -1.53,0.44 -1.97,2.18 -1.51,4.01 0.21,0.81 0.48,1.41 0.89,2.09 0.44,0.7 0.85,1.13 1.29,1.68z"/>
  <path class="fil4" d="M111.45 158.17c-0.81,0.39 -1.33,1.1 -1.4,2.32 -0.07,1.05 0.93,3.02 1.61,3.83 0.56,0.65 0.36,-0.21 0.93,0.68 1.26,1.95 4.45,1.06 4.11,-1.24 -0.11,-0.77 -2.44,-6.93 -5.25,-5.58z"/>
  <path class="fil4" d="M73.2 178.08c0.56,0.28 0.83,0.67 1.34,0.94 0.49,-6.48 -4.71,-8.6 -5.98,-5.32 -0.37,0.96 -0.02,2.12 0.44,2.8 0.69,1.02 0.9,2.09 2.01,3.41 0.46,0.55 0.35,0.48 0.91,0.49 1.55,0.04 1.48,-0.88 1.28,-2.32z"/>
  <path class="fil4" d="M36.3 197.67l0.56 -0.3c0.21,0.39 0.42,0.66 0.79,0.9l-0.02 -1.54c1.24,0.15 0.43,0.45 1.61,1 0.71,-1.28 0.67,-3.75 0.1,-5.12 -1.83,-4.47 -7.03,-2.37 -5.27,1.21 0.92,1.88 0.77,2.55 2.24,3.85z"/>
  <path class="fil4" d="M43.98 194.47l0.41 -0.4c0.01,-0 0.05,-0 0.06,-0.01l1 -0.1c0.27,0.39 0.31,0.45 0.69,0.75 0.59,-1.22 0.37,-4.42 -0.14,-5.65 -0.51,-1.22 -2.01,-2.98 -3.99,-2.24 -1.57,0.59 -1.82,2.84 -0.87,4.39 0.44,0.71 0.89,1.07 1.33,1.78 1.61,2.57 0.39,0.95 1.5,1.47z"/>
  <path class="fil4" d="M161.76 153.8l-0.11 -2.29c0.6,0.84 0.73,1.68 1.66,2.04 1.27,0.5 1.9,-0.34 2.4,-1.1 0.27,0.12 0.06,0 0.29,0.16 0.01,0.01 0.28,0.22 0.29,0.23 -0.34,-2.34 -1.2,-7.61 -4.04,-6.79 -2.31,0.67 -2.37,5.68 -0.5,7.75z"/>
  <path class="fil4" d="M136.22 158.86c0.02,-0.03 0.04,-0.11 0.05,-0.09 0.09,0.26 0.08,-0.15 0.09,-0.18l0.08 -0.19c0.01,-0.02 0.02,-0.06 0.04,-0.09 0.54,0.62 1.71,1.06 2.63,0.78 1.04,-0.33 1.14,-1.2 1.19,-2.48l0.57 1.16c0.68,-2.71 -1.53,-5.87 -4.09,-5.48 -1.28,0.19 -2.16,1.4 -1.94,2.92 0.2,1.34 0.9,2.56 1.38,3.67z"/>
  <path class="fil4" d="M64.18 27.72l-0.13 -1.27c0.5,1.82 0.87,1.24 1.59,1.87 -0.4,0.28 -2.33,1.07 -4.09,2.27 -1.19,0.81 -2.65,1.94 -3.36,3 0.57,-0.31 1.17,-0.93 1.85,-1.2l-0.89 0.96c-0.2,0.25 0.02,-0.12 -0.19,0.28 1.27,-0.7 2.23,-1.44 4.03,-2.41 1.4,-0.76 2.86,-1.39 4.44,-1.93 1.79,-0.62 5.42,-1.68 7.39,-2.09 0.47,-0.09 0.89,-0.2 1.37,-0.25 0.21,-0.02 0.54,-0.02 0.71,-0.04 0.19,-0.03 0.2,-0.02 0.39,-0.09 0.37,-0.14 0.11,0.03 0.38,-0.22 -3.57,-0.47 -7.89,0.18 -11.07,1.4 -0.02,-0.03 -0.04,-0.11 -0.04,-0.09 -0,0.02 -0.03,-0.07 -0.04,-0.09 -1.35,-4.31 -4.52,-4.15 -3.67,-1.59 0.08,0.26 0.41,0.96 0.52,1.11 0.3,0.38 0.06,0.07 0.31,0.09l0.5 0.28z"/>
  <path class="fil4" d="M85.95 53.39c0.18,-1.04 -0.79,-3.04 -1.1,-4.07 -0.54,-1.74 -2.55,-8.21 -3.33,-9.52 -0.32,-0.55 -1.31,-1 -1.57,-0.45 -0.34,0.72 1.68,7.02 2.05,8.1l2.21 5.5c0.21,0.33 0.44,0.42 0.85,0.54 0.54,0.16 0.44,0.13 0.9,-0.09z"/>
  <path class="fil4" d="M126.35 194.93c0.18,-0.54 0.35,-2.39 0.62,-3.31 0.31,-1.09 0.77,-1.99 1.07,-2.94 -7.04,10.9 1.34,24.97 13.26,26.05 -2.38,-0.24 -5.82,-2.01 -7.39,-3.2 -4.29,-3.24 -6.94,-8.41 -7.06,-14.07 -0.08,-3.74 0.77,-5.68 1.85,-8.65 -1.04,1.73 -2.11,3.8 -2.36,6.12z"/>
  <path class="fil4" d="M29.76 199.67c1.39,0.68 0.88,0.17 1.58,0.3 0.15,0.03 1.16,0.74 1.39,0.87 0.67,-3.21 -0.57,-8.38 -3.48,-7.28 -1.46,0.55 -1.65,2.15 -1.27,3.91 0.22,1 0.13,1.31 0.67,2.18 0.16,0.26 0.45,0.7 0.74,0.72 0.57,0.04 0.21,-0.35 0.36,-0.7z"/>
  <path class="fil4" d="M218.32 163.77l-0.96 -0.23c-7.45,-0.76 -26.24,-2.42 -32.29,-1.92 4.3,1.04 28.29,2.32 33.26,2.14z"/>
  <path class="fil5" d="M230.98 201.49c0.3,0.22 0.73,0.55 1.02,0.78 0.47,0.39 0.46,0.58 1.02,0.88 -0.13,-1.16 -0.82,-2.46 -1.37,-3.12 -0.8,-0.77 -1.09,-1.3 -2.16,-2.02 -3.16,-2.13 -6.76,-1.7 -9.67,0.2 2.32,0.3 2.77,-0.31 6.37,0.8 1.4,0.43 4.09,1.73 4.8,2.48z"/>
  <path class="fil4" d="M62.31 61.28l-0.98 -4.6c0.16,0.54 1.23,3.73 1.46,4.12 -0.06,-1.15 -2.16,-9.21 -2.61,-10.77 -0.71,-2.5 -2.26,-8.28 -3.32,-10.11l0.39 2.27 -1.02 -2.63c0.07,3.84 6.11,21.52 6.08,21.7z"/>
  <path class="fil4" d="M222.64 171.04c-1.81,-1.09 -29.52,-1.67 -32.59,-1.57 2.22,1 28.39,1.75 32.59,1.57z"/>
  <path class="fil5" d="M112.4 274.56c-0.29,-1.75 -0.96,-3.73 -1.33,-5.67 -0.99,-5.31 -1.16,-10.82 -0.51,-16.2 0.1,-0.83 0.4,-2.35 0.37,-3.03 -0.02,0.28 -0.7,2.14 -0.87,2.77 -0.8,3.14 -1.18,7.08 -1.02,10.3 0.19,3.68 1.28,7.92 2.93,11.23 0.01,0.01 0.14,0.26 0.15,0.27 0.33,0.48 0.03,0.1 0.29,0.33z"/>
  <path class="fil4" d="M25.94 229.31c0.25,0.25 0.12,0.02 0.27,0.44 0.04,0.09 0.07,0.43 0.09,0.56 0.18,1.19 1.7,6.1 2.05,6.91l0.2 0.69c0.26,-0.5 -0.23,-1.54 -0.23,-2.24l0.72 1.89 -0.51 -3.72 -5.26 -18.17 1.4 6.37c0.04,-0.64 -1.84,-6.08 -2.17,-7.33 0,1.09 2.03,9.11 2.56,11.15 0.24,0.91 0.8,2.59 0.88,3.46z"/>
  <path class="fil4" d="M78.38 25.33c-0.48,-0.77 -1.11,-1.53 -1.68,-2.25 -0.6,-0.75 -1.14,-1.48 -1.72,-2.21 -1.1,-1.38 -4.09,-5.25 -5.35,-6.57l-2.78 -3.04c-0.48,-0.53 -2.61,-3.07 -3.11,-3.07 -0.34,-0.01 -0.35,-0.17 -0.67,-0.43 0.87,1.62 7.75,9.99 9.27,11.56l5.01 5.44c0.11,0.11 0.06,0.12 0.24,0.16 0.57,0.13 -0.12,-0.28 0.8,0.41z"/>
  <path class="fil4" d="M198 151.73l0.45 0.5c0.09,-1.66 -0.02,-5.34 -1.65,-6.17 -2.02,-1.03 -3.21,1.11 -1.81,4.66 0.25,0.64 0.41,1.3 1.01,1.56 0.96,0.42 1.54,0.01 1.99,-0.54z"/>
  <path class="fil4" d="M207.21 152.36c0.08,-1.78 -0.03,-5.76 -2.02,-6.44 -0.92,-0.31 -1.59,0.17 -1.9,0.81 -0.42,0.89 0.52,3.44 0.91,4.24 0.33,0.69 0.75,2.1 2.2,1.57 0.46,-0.17 0,-0.09 0.41,-0.19l0.4 0.01z"/>
  <path class="fil4" d="M193.17 151.57c0.29,0.45 0.37,0.51 0.65,0.86 0.17,-2.15 -0.96,-8.97 -3.55,-7.21 -1.51,1.02 -0.01,4.58 1.14,6.12 0.67,0.9 0.85,0.32 1.77,0.23z"/>
  <path class="fil4" d="M213.22 144.06c-3.78,-0.57 -32.75,-2.57 -35.13,-2.2 1.5,0.64 30.59,2.46 35.13,2.2z"/>
  <path class="fil4" d="M188.98 151.01l0.51 0.83c-0.04,-1.64 -0.2,-3.48 -0.78,-4.88 -0.31,-0.75 -0.7,-1.24 -1.29,-1.56 -0.72,-0.39 -1.53,-0.18 -1.89,0.49 -0.52,0.97 0.96,5.88 1.49,5.75 0.26,-0.06 -0.22,-0.2 0.26,-0.11 0.57,0.11 0.79,0.96 1.69,-0.54z"/>
  <path class="fil4" d="M176.08 151.5c-0.05,-0.48 -0.14,-0.38 0.04,-0.79 0.37,1.45 2.46,1.62 1.86,-0.85 -0.19,-0.76 -0.36,-1.3 -0.59,-1.98 -0.35,-1.04 -0.92,-2.93 -1.38,-3.73 -3.09,-0.41 -1.42,4.01 -0.84,5.55 0.3,0.78 0.62,1.22 0.92,1.81z"/>
  <path class="fil4" d="M202.88 151.82c0.06,-7.62 -3.38,-6.03 -3.75,-4.92 -0.38,1.14 0.85,4.09 1.29,4.89 0.28,0.51 0,0.16 0.33,0.36 0.98,0.61 1.68,-0.24 1.84,-0.31l0.29 -0.02z"/>
  <path class="fil4" d="M59.58 37.55c0.61,-0.46 1.39,-1.1 2.2,-1.41 -0.33,0.48 -1.04,0.79 -1.39,1.45 0.65,-0.37 1.17,-0.82 1.9,-1.25 4.11,-2.45 9.52,-4.4 14.32,-5.07 1.2,-0.17 1.89,0.02 2.94,-0.04 -2.53,-0.61 -3.18,-0.7 -5.99,-0.28 -3.77,0.56 -6.99,1.7 -10.14,3.54 -1.17,0.68 -3.38,2.2 -3.85,3.05z"/>
  <path class="fil4" d="M56.93 225.32c-0.06,-0.76 -0.35,-1.65 -0.45,-2.58 -0.29,-2.55 0.16,-5.66 1.24,-7.88 1.76,-3.66 3.5,-4.62 6.93,-5.39 -5.66,-1.2 -9.19,4.44 -9.19,10.07 -0.01,3.42 1.04,5.72 1.05,6.28 -0.09,-1.34 -1.17,-3.33 -0.57,-7.06 0.09,-0.6 0.43,-1.71 0.43,-2.16 -0.03,0.69 -0.2,1.36 -0.25,2.2 -0.15,2.55 0.27,4.16 0.82,6.52z"/>
  <path class="fil4" d="M208.95 146.5c-1.79,0.45 -0.91,2.1 -0.5,3.48 0.42,1.37 0.8,3.04 2.18,2.86 0.82,-0.11 1.09,-0.6 1.01,-1.56 -0.12,-1.48 -0.6,-5.31 -2.69,-4.77z"/>
  <path class="fil4" d="M32.34 224.14c-0.51,-2.04 -1.05,-4.1 -1.63,-6.1l-1.76 -5.77 0.74 3.69c-0.05,-0.65 -0.57,-1.77 -0.57,-1.78 -0.01,-0.06 -0.04,-0.07 -0.06,-0.09 0.27,2.46 4.83,19.81 5.95,22.39 -0.05,-1.07 -0.54,-2.27 -0.57,-3.24 -0.03,-1.32 -1.72,-7.53 -2.1,-9.08z"/>
  <path class="fil4" d="M86.8 176.09l0.02 -1.2 0.67 1.23c-0.17,-4.42 -1.29,-7.87 -2.94,-11.26l-0.24 0.74c-0.09,-0.39 0.05,-0.1 -0.15,-0.47 -0.17,-0.31 -0.12,-0.2 -0.27,-0.34 0.01,3.04 0.78,6.03 1.86,8.78 0.32,0.81 0.8,1.77 1.04,2.53z"/>
  <path class="fil4" d="M182.71 151.34l-0.16 -1.36c0.13,0.98 0.65,1.07 1.2,1.43 0.26,0.18 -0.02,0.25 0.61,0.22 0.35,-1.87 -0.26,-7.01 -2.35,-6.56 -1.63,0.35 -0.83,3.6 -0.16,4.97 0.25,0.52 0.76,1.06 0.86,1.29z"/>
  <path class="fil4" d="M85.13 58.68l0.1 -0.37c0,-0.01 -0.02,-0.24 -0.02,-0.29l0.69 0.93c0.09,-0.32 -0.2,-0.48 0.05,-0.82 0.48,0.65 0.22,0.77 1.08,1.06 1.85,0.63 1.99,-1.01 1.13,-2.21 -0.41,-0.57 -0.5,-1.13 -0.78,-1.52 -0.43,-0.62 -2.47,-1.48 -3.04,-0.32 -0.77,1.57 0.43,2.7 0.79,3.54z"/>
  <path class="fil4" d="M219.97 160.98c-0.02,-0.21 -0.1,-0.53 0.02,-0.78l0.61 1.26c-0.31,-1.91 -1.76,-5.78 -2.46,-7.62 -1.07,-2.87 -1.95,-4.66 -2.94,-7.14l0.3 1.39c-0.07,-0.38 -0.64,-1.47 -0.88,-1.82 0.27,2.32 2.77,8.58 3.82,11.19 0.44,1.09 1.23,2.56 1.53,3.51z"/>
  <path class="fil4" d="M175.64 158.86c0.32,0.13 -0.16,-0.86 0.73,1.31 -0.27,-2.78 -3.79,-15.16 -4.99,-16.61 0.06,3.76 3.22,11.43 4.26,15.3z"/>
  <path class="fil4" d="M73.44 62.41l-0.36 -0.5c2.04,0.26 1.9,-0.99 1.23,-2.04 -0.63,-1 -0.93,-1.82 -2.25,-2.09 -1.7,-0.35 -1.32,1.43 -0.89,2.52 0.55,1.42 0.85,1.68 2.27,2.11z"/>
  <path class="fil4" d="M213.61 152.89l0.1 -1.19c0.23,0.18 0.22,0.21 0.45,0.55 0.07,0.1 0.12,0.2 0.22,0.33l0.42 0.41c0.02,-1.67 -0.33,-7.04 -2.53,-6.23 -1.39,0.51 -0.33,2.25 -0.02,3.09 0.34,0.91 0.91,2.38 1.37,3.04z"/>
  <path class="fil4" d="M182.21 159.55l-1.03 -4.55c0.16,0.85 1.13,2.68 1.11,3.26 -0.13,-1.45 -2.23,-8.36 -2.96,-10.57l-0.38 -1.12c-0.2,-0.38 -0.1,-0.21 -0.28,-0.41l0.26 1.37c0,-0.55 -1.13,-2.98 -1.39,-3.7 0.17,2.86 3.52,13.19 4.66,15.71z"/>
  <path class="fil4" d="M70.82 26.22c0.24,-1.12 -0.18,-1.46 -1.31,-2.84 -0.33,-0.4 -0.57,-0.69 -1.26,-0.92 -1.71,-0.57 -1.48,1.15 -1.19,2.55 0.18,0.87 0.79,1.47 1.65,1.36l0.13 -0.04c0.02,-0 0.05,-0.02 0.07,-0.02 0.92,-0.21 0.76,0.55 1.91,-0.09z"/>
  <path class="fil4" d="M211.58 187.63c-0.15,-0.75 -0.26,-1.57 -0.47,-2.38 -0.23,-0.89 -0.56,-1.71 -0.73,-2.57l0.13 0.17c0.55,0.86 1.11,3.19 1.51,4.05 -0.16,-3.44 -4.63,-13.9 -9.84,-13.88 4.18,0.5 9.12,11.63 9.41,14.62z"/>
  <path class="fil5" d="M195.73 248.89c-0.16,-4.28 -5,-8.13 -8.67,-7.75 1.49,0.5 3.84,2.35 4.9,3.2 1.11,0.9 2.92,3.01 3.78,4.54z"/>
  <path class="fil5" d="M184.54 237.17c0.36,-3.97 -2.28,-7.57 -5.71,-8.04 0.36,0.59 1.84,1.83 3.13,3.67l2.38 4.13c0.02,0.02 0.05,0.06 0.06,0.08l0.14 0.15z"/>
  <path class="fil4" d="M66.23 64.97c0.3,0.46 -0.51,-0.26 0.23,-0.03l0.47 0.13c1.19,0.07 1.32,0.48 1.79,0.18 1.02,-0.63 -0.46,-3.13 -2.01,-3.61 -2.82,-0.86 -1.4,2.78 -0.47,3.32z"/>
  <path class="fil4" d="M60.26 2.53l-0.93 0.45 0.37 -0.75c-0.25,0.23 -0.43,0.33 -0.83,0.49 -1.75,0.72 -1.48,-1.06 -0.59,-1.54 0.76,-0.4 1.18,-0.17 1.94,-0.06 -1.26,-1.74 -4.74,-1.49 -4.55,1.04 0.16,2.2 3.91,2.57 4.59,0.37z"/>
  <path class="fil4" d="M19.93 203.21c-0.01,-0.76 -1.21,-2.97 -1.48,-3.82 -0.11,2.3 1.68,9.23 2.83,10.54l-0.26 -2.63 0.89 2.5c-0.16,-2.71 -1.63,-6.17 -2.27,-8.55l0.3 1.95z"/>
  <path class="fil4" d="M60.33 68.25l1.02 0.43 0.2 -1.01c0.01,-0.02 0.02,-0.07 0.04,-0.1 0.27,0.13 0.25,-0.13 0.33,0.5 0.25,-0.65 -0.06,-0.03 0.6,-0.48 0.01,-0.64 -0.91,-2.84 -2.37,-3.18 -1.25,-0.3 -0.6,0.99 -0.48,1.7 0.13,0.78 0.33,1.51 0.66,2.14z"/>
  <path class="fil5" d="M288.72 91.93c-2.25,0.57 -1.28,3.51 0.67,3.05 2.01,-0.48 1.26,-3.54 -0.67,-3.05z"/>
  <path class="fil5" d="M114 292.07c0.18,0.18 0.17,-0.29 0.13,0.35l0.07 -0.26c-1.01,-6.4 -0.71,-5.64 0.44,-11.46 -1.72,2.05 -2.17,5.87 -1.55,8.64 0.25,1.1 0.72,1.9 0.91,2.72z"/>
  <path class="fil4" d="M98.01 175.05c0.09,-0.2 0.03,0.19 0.09,-0.34l-0.01 -1 0.66 1.68c0.06,-1.81 -0.97,-5.9 -1.8,-7.13l0.04 1.28c-0.11,-0.52 -0.48,-1.08 -0.69,-1.57 -0.11,2.85 1.21,5.25 1.71,7.09z"/>
  <path class="fil4" d="M99.13 56.39c-0.4,0.76 0.3,1.66 0.7,2.19 0.39,0.5 0.15,0.09 0.77,0.46 0.41,0.24 1.42,1.11 1.45,0.04 0,-0.11 -0.09,-0.59 -0.12,-0.7 -0.11,-0.45 -0.21,-0.92 -0.48,-1.13 -0.04,-0.03 -1.7,-0.98 -2.32,-0.85z"/>
  <path class="fil4" d="M58.16 6.58c0.17,-0.28 0.07,-0.34 0.16,-0.62 0.19,0.35 0.41,0.66 0.68,0.86l-0.31 -1.25 1.67 -0.42c0.16,0.42 0.4,0.71 0.58,1.1 0.12,-0.44 -0.09,-0.39 0.09,-0.83 0.17,0.41 0.4,0.72 0.63,1.05 -0.08,-0.54 -0.21,-1.46 -0.48,-1.84 -0.85,-1.2 -3.38,0.07 -3.53,0.28 -0.45,0.57 0.32,1.21 0.52,1.68z"/>
  <path class="fil4" d="M74.38 25c0.16,-0.33 0.06,-1.87 -1.31,-2.35 -0.36,-0.12 -0.78,-0.33 -1.13,-0.1 -1.05,0.68 0.85,2.96 2.44,2.46z"/>
  <path class="fil4" d="M97.41 58.46c0.34,-0.7 -0.32,-2.51 -1.04,-2.91 -0.25,-0.14 -0.86,-0.36 -1.12,-0.2 -0.81,0.5 0.4,1.56 0.58,1.81 0.25,0.37 0.16,0.72 0.51,1 0.18,0.15 0.78,0.33 1.07,0.29z"/>
  <path class="fil4" d="M176.71 162.08l1.09 0.06 -0.91 0.34c1.43,0.13 3.07,-0.12 4.44,-0.45 0.45,-0.11 0.95,-0.21 1.33,-0.47l-0.97 -0.03 1.29 -0.42c-1.9,-0.02 -4.74,0.29 -6.29,0.97z"/>
  <path class="fil1" d="M97.33 180.63c-0.37,-0.59 0.06,0.67 0.01,-0.23 0,-0.01 0,-0.05 -0.01,-0.07 -1.44,0.3 -2.87,0.58 -4.27,0.92 -0.83,0.2 -3.65,1.11 -4.07,1.1l1.8 -0.23c-0.04,0.02 -0.09,0.02 -0.11,0.07l-0.81 0.33c1.2,-0.02 3.64,-0.65 4.95,-0.94l2.5 -0.94z"/>
  <path class="fil6" d="M85.22 161.49l0.82 0.16c0.87,0.02 2.53,-0.4 3.39,-0.66 0.53,-0.16 1.07,-0.3 1.58,-0.45 0.57,-0.17 1.02,-0.43 1.55,-0.52l-2.53 0.41c0.53,-0.06 1.16,-0.38 1.71,-0.56 -1.57,-0.08 -6.33,1.63 -6.51,1.63z"/>
  <path class="fil4" d="M225.59 176.35c-0.37,-2.67 -3.96,-11.1 -4.01,-11.61 0.11,1.16 1.36,4.62 1.8,5.92l1.55 4.27c0.2,0.53 0.34,1.04 0.65,1.42z"/>
  <path class="fil4" d="M171.01 141.89c1.62,0.26 4.48,-0.12 5.58,-0.91 -1.77,-0.1 -4.16,0.24 -5.58,0.91z"/>
  <path class="fil4" d="M26.45 203.69c-0.11,-0.05 -0.16,0.29 -0.42,-0.48 -0.07,0.55 0.43,2.37 0.61,2.92 0.15,0.44 0.3,1 0.5,1.41 0.25,0.5 0.58,0.57 0.62,0.95 -0.15,-1.61 -0.81,-3.38 -1.31,-4.79z"/>
  <path class="fil1" d="M16.2 195.02c3.22,-0.22 2.1,-0.5 4.25,-0.97l-0.45 -0.19c0.47,-0.15 0.57,-0.28 0.93,-0.41 -1.35,0.12 -3.77,0.89 -4.72,1.56z"/>
  <path class="fil6" d="M21.86 212.54c0.89,0.13 3.89,-0.88 4.35,-1.34 0.04,-0.03 0.04,-0.17 0.28,-0.28 -1.55,0.12 -3.14,0.91 -4.45,1.37 0,0.05 0.25,0.18 -0.18,0.25z"/>
  <path class="fil5" d="M41.92 266.54c0.37,-0.23 0.22,-0.16 0.52,-0.47 0.76,-0.8 1.96,-1.58 3.01,-1.99 0.7,-0.28 1.1,-0.25 1.56,-0.56 -1.16,-0.02 -2.31,0.38 -3.12,0.89 -0.77,0.49 -1.55,1.31 -1.98,2.13z"/>
  <path class="fil4" d="M59.36 186.69c0,0 0,0 0,0z"/>
  <path class="fil7" d="M425.37 287.07c2.2,0 3.66,-1.83 3.66,-3.67 0.37,-31.89 39.22,-150.27 52.78,-181.43l0.37 -3.66 0 -1.47c1.1,0.37 4.4,1.1 19.79,4.03 17.23,3.66 32.62,6.96 44.35,6.96 5.86,0 10.63,-0.73 14.29,-2.57 4.4,-2.2 8.43,-8.43 10.26,-15.39 0.73,-2.57 1.1,-5.13 1.1,-8.06 0,-3.66 -0.73,-7.33 -2.2,-10.63 -0.74,-1.83 -2.2,-2.57 -3.3,-2.57 -1.1,0 -1.83,0.37 -2.57,1.1 -3.3,3.66 -10.26,5.13 -19.43,5.13 -15.39,0 -37.02,-4.03 -59.74,-8.06 -23.83,-4.4 -48.75,-8.8 -69.27,-9.17l-6.6 0c-16.49,0 -34.46,1.83 -43.98,14.66 -1.47,1.83 -3.3,11.73 -3.3,20.16 0,5.86 1.1,11.36 3.66,13.19 1.1,0.74 1.83,1.1 2.93,1.1 1.47,0 2.93,-1.1 3.3,-2.93 1.83,-6.6 11,-10.63 24.92,-12.46 6.23,-1.1 13.56,-1.46 21.26,-1.46 10.63,0 22.36,1.1 34.45,2.2 -0.37,0.37 -1.1,1.1 -1.1,1.83 -10.26,23.09 -49.85,149.54 -49.85,179.6l0.37 4.03c1.83,6.97 12.83,9.53 21.99,9.53l1.83 0zm75.5 -29.69l-1.1 0c-5.5,-0.73 -7.69,-7.33 -7.69,-16.49 0,-26.39 19.43,-76.24 37.02,-79.17l1.83 0c4.76,0 6.96,3.66 8.06,8.43 -6.97,1.83 -13.56,12.46 -13.56,23.09 0,6.23 2.2,12.83 8.06,17.23 -4.03,11.36 -18.33,46.92 -32.62,46.92zm-2.57 11.36c25.29,0 43.25,-29.32 51.31,-52.41l2.93 0c14.66,0 30.06,-8.06 37.39,-21.99 0.37,-0.73 0.37,-1.46 0.37,-2.2 0,-1.1 -0.37,-2.2 -1.46,-2.56 -0.74,-0.37 -1.47,-0.74 -2.2,-0.74 -1.1,0 -2.2,0.37 -2.93,1.83 -6.23,12.09 -19.43,18.33 -31.52,18.33 2.57,-8.43 4.77,-19.8 4.77,-30.42 0,-17.23 -5.13,-33.72 -22.72,-38.12 -3.3,-0.73 -6.23,-1.1 -9.17,-1.1 -34.09,0 -59.38,49.48 -59.38,87.23 0,23.46 9.53,42.15 32.62,42.15zm167.5 0c6.97,-0.37 15.03,-8.8 23.09,-20.52 10.99,-16.49 21.62,-39.22 28.59,-54.25 0.37,-0.73 0.37,-1.1 0.37,-1.83 0,-1.1 -0.73,-2.2 -1.83,-2.93 -0.73,-0.37 -1.46,-0.37 -1.83,-0.37 -1.1,0 -2.57,0.37 -3.3,2.2 -6.23,13.56 -16.86,35.92 -27.12,51.68 -6.97,10.63 -13.56,18.32 -18.33,18.69 -2.2,0 -2.57,-3.3 -2.57,-8.43 0.73,-26.39 24.56,-89.43 29.32,-101.16l0.37 -1.47c0,-5.86 -11.36,-10.99 -20.16,-10.99 -4.4,0 -8.06,1.46 -9.17,4.4 -3.66,8.06 -9.53,23.46 -14.66,39.95 -9.9,26.76 -18.33,45.09 -26.02,57.18 -9.53,15.4 -16.49,20.52 -20.53,20.52 -1.83,0 -2.2,-3.3 -2.2,-8.43 0.74,-26.39 24.56,-89.43 29.32,-101.16l0.37 -1.47c0,-5.49 -11.36,-10.99 -20.16,-10.99 -4.4,0 -7.7,1.46 -9.16,4.4 -5.5,11.73 -18.69,48.01 -24.19,73.67 -2.2,9.89 -3.67,19.79 -3.67,27.49 0,6.23 0.74,11.37 2.94,15.03 4.03,7.7 13.56,8.8 22.72,8.8l4.76 0c8.43,-0.37 17.6,-11 25.29,-23.46 3.3,-4.77 6.23,-9.9 8.43,-14.66 -0.74,5.13 -1.1,9.9 -1.1,14.29 0,6.23 0.73,11.37 2.93,15.03 4.03,7.7 13.56,8.8 22.72,8.8l4.77 0zm99.7 0c6.6,0 11.73,-2.57 19.79,-14.29 7.33,-10.63 16.49,-29.32 30.42,-60.48 0.37,-0.73 0.37,-1.1 0.37,-1.46 0,-1.47 -0.73,-2.57 -1.46,-2.93 -0.74,-0.37 -1.47,-0.74 -2.57,-0.74 -1.1,0 -2.2,0.74 -2.93,2.2 -13.93,30.79 -23.09,49.12 -30.06,59.38 -1.83,2.94 -8.8,11.37 -13.56,11.37 -1.83,0 -3.3,-1.1 -4.03,-4.4l-0.74 -6.23c0,-18.33 11.73,-50.95 17.6,-67.44 4.03,-11.73 6.96,-19.42 6.96,-25.29l-0.37 -2.56c-1.46,-9.53 -10.63,-16.49 -19.79,-16.49 -7.7,0 -16.13,2.93 -26.02,3.3 1.1,-2.57 4.03,-11 5.5,-16.13l0.37 -1.1c0,-2.93 -4.77,-4.4 -9.17,-4.4 -3.66,0 -7.69,1.1 -8.8,4.03 -1.83,4.77 -3.66,10.26 -3.66,15.4 0,4.03 1.46,7.7 4.77,10.26 -6.23,15.03 -8.8,20.89 -17.6,40.32 -0.37,0.73 -0.37,1.1 -0.37,1.47 0,2.2 1.1,2.93 2.2,3.3 0.73,0.37 1.1,0.37 1.83,0.37 1.1,0 2.56,-1.1 2.93,-2.2 8.43,-18.32 11.73,-25.66 17.23,-39.95 1.83,0.73 4.03,0.73 5.86,0.73 6.23,0 12.83,-1.83 17.59,-2.2 -6.6,19.79 -24.92,65.24 -24.92,92.73 0,5.86 1.1,11 2.93,14.66 4.4,8.43 17.23,8.8 26.03,8.8l3.66 0zm107.39 18.33c2.2,0 3.66,-1.83 3.66,-3.67 0.37,-31.89 39.22,-150.27 52.78,-181.43l0.37 -3.66 0 -1.47c1.1,0.37 4.4,1.1 19.79,4.03 17.23,3.66 32.62,6.96 44.35,6.96 5.86,0 10.63,-0.73 14.29,-2.57 4.4,-2.2 8.43,-8.43 10.26,-15.39 0.73,-2.57 1.1,-5.13 1.1,-8.06 0,-3.66 -0.74,-7.33 -2.2,-10.63 -0.73,-1.83 -2.2,-2.57 -3.3,-2.57 -1.1,0 -1.83,0.37 -2.57,1.1 -3.3,3.66 -10.26,5.13 -19.43,5.13 -15.4,0 -37.02,-4.03 -59.75,-8.06 -23.82,-4.4 -48.75,-8.8 -69.27,-9.17l-6.6 0c-16.49,0 -34.46,1.83 -43.98,14.66 -1.47,1.83 -3.3,11.73 -3.3,20.16 0,5.86 1.1,11.36 3.66,13.19 1.1,0.74 1.83,1.1 2.93,1.1 1.47,0 2.93,-1.1 3.3,-2.93 1.83,-6.6 11,-10.63 24.92,-12.46 6.23,-1.1 13.56,-1.46 21.26,-1.46 10.63,0 22.36,1.1 34.45,2.2 -0.37,0.37 -1.1,1.1 -1.1,1.83 -10.26,23.09 -49.85,149.54 -49.85,179.6l0.37 4.03c1.83,6.97 12.83,9.53 21.99,9.53l1.83 0zm74.41 -45.82c-3.67,0 -5.5,-3.66 -5.5,-9.89 0,-21.63 20.89,-71.47 37.38,-71.47l2.2 0.37c4.03,1.1 5.5,5.13 5.5,10.26 0,8.06 -3.3,17.96 -5.13,22.72 -3.66,9.16 -23.46,47.65 -34.45,48.01zm54.61 27.49c17.23,-0.73 39.95,-48.75 52.05,-74.77 0.37,-1.1 0.37,-1.1 0.37,-1.83 0,-1.46 -0.73,-2.56 -1.83,-2.93l-1.83 -0.37c-1.47,0 -2.57,0.37 -3.3,2.2 -10.63,23.09 -33.72,70.01 -45.82,70.37 -1.83,0 -2.2,-3.3 -2.2,-8.43 0.74,-26.39 24.56,-89.43 29.32,-101.16l0.37 -1.47c0,-5.86 -11.36,-10.99 -19.79,-10.99 -4.4,0 -7.7,1.1 -9.53,4.03l-2.56 6.6c-4.4,-6.96 -12.1,-10.26 -21.63,-10.26l-0.37 0c-36.29,0 -62.68,51.68 -62.68,87.96 0,19.06 7.33,33.72 24.92,34.09l0.73 0c14.29,0 26.03,-14.3 34.46,-28.96 -0.37,4.4 -0.74,8.06 -0.74,11.73 0,6.23 0.74,11.73 2.93,15.4 4.03,7.7 13.56,8.8 22.73,8.8l4.4 0zm64.14 0c7.7,-0.37 15.76,-9.9 19.79,-15.76 12.46,-16.49 24.56,-42.15 32.26,-59.01 0.37,-0.73 0.37,-1.1 0.37,-1.83 0,-1.1 -0.73,-2.2 -1.83,-2.93 -0.74,-0.37 -1.47,-0.37 -1.83,-0.37 -1.47,0 -2.57,0.37 -3.3,2.2 -7.33,15.4 -19.79,42.15 -31.15,57.91 -2.2,2.93 -9.17,12.46 -13.93,12.46l-0.73 0c-0.73,0 -0.73,-1.46 -0.73,-3.66l0.37 -7.33c4.03,-37.75 42.52,-138.54 46.92,-150.27l0.37 -1.1c0,-5.13 -12.09,-11.36 -21.63,-11.36 -4.4,0 -8.06,1.47 -9.89,4.4 -5.86,13.56 -43.62,107.39 -43.62,152.1 0,6.23 0.73,11.73 2.57,15.76 3.66,7.7 12.09,8.8 20.89,8.8l5.13 0zm77.34 -62.31c-1.83,0 -3.66,-0.37 -5.13,-1.47 2.93,-8.8 7.7,-18.32 13.2,-26.75 3.66,-5.13 15.4,-20.53 23.83,-20.53 1.1,0 1.83,0 2.93,0.73 1.1,0.74 1.83,1.83 1.83,4.03 0,11.73 -20.89,43.98 -36.65,43.98zm6.97 62.31c3.66,0 8.06,-0.37 12.83,-1.83 14.66,-5.13 34.82,-21.62 59.38,-72.94 0.37,-0.73 0.37,-1.46 0.37,-1.46 0,-1.47 -0.73,-2.57 -1.83,-2.93 -0.73,-0.37 -1.46,-0.74 -2.2,-0.74 -1.1,0 -2.2,0.74 -2.93,2.2 -23.09,48.01 -41.42,63.78 -54.24,68.54 -2.93,0.73 -5.86,1.1 -8.06,1.1l-4.03 -0.37c-12.09,-2.57 -16.12,-16.86 -16.12,-30.79 0,-4.77 0.73,-9.53 1.46,-13.93 2.93,2.57 6.6,3.66 10.26,3.66 19.79,0 46.55,-31.89 47.28,-57.91l0 -0.73c0,-13.93 -11.36,-20.89 -25.29,-21.26l-1.47 0c-26.75,0 -46.18,28.22 -54.98,51.68 -4.4,11.73 -6.96,23.83 -6.96,35.19 0,23.09 11.36,41.42 42.52,42.52l4.03 0z"/>
  <path class="fil7" d="M1236.4 240.45c2.51,0 4.77,0.57 6.76,1.72 2,1.15 3.55,2.73 4.68,4.75 1.13,2.02 1.69,4.28 1.69,6.8 0,2.51 -0.56,4.79 -1.69,6.83 -1.13,2.03 -2.69,3.63 -4.68,4.78 -1.99,1.15 -4.25,1.72 -6.76,1.72 -2.56,0 -4.83,-0.57 -6.83,-1.72 -1.99,-1.15 -3.55,-2.74 -4.68,-4.78 -1.13,-2.04 -1.69,-4.31 -1.69,-6.83 0,-2.51 0.56,-4.78 1.69,-6.8 1.13,-2.01 2.69,-3.6 4.68,-4.75 2,-1.15 4.27,-1.72 6.83,-1.72zm0 23.99c3.12,0 5.65,-1 7.58,-2.99 1.93,-2 2.89,-4.57 2.89,-7.74 0,-3.16 -0.96,-5.74 -2.89,-7.74 -1.93,-2 -4.46,-2.99 -7.58,-2.99 -3.16,0 -5.69,1 -7.58,2.99 -1.89,2 -2.83,4.57 -2.83,7.74 0,3.16 0.94,5.74 2.83,7.74 1.89,2 4.41,2.99 7.58,2.99zm5.85 -13.46c0,1.04 -0.27,1.92 -0.81,2.63 -0.54,0.72 -1.29,1.22 -2.24,1.53l3.64 5.4 -4.1 0.06 -3.12 -5.2 -1.11 0 0 5.2 -3.38 0 0 -13.98 6.24 0c1.47,0 2.65,0.39 3.54,1.17 0.89,0.78 1.33,1.85 1.33,3.19zm-7.74 1.63l2.66 0c0.48,0 0.88,-0.13 1.2,-0.39 0.32,-0.26 0.49,-0.63 0.49,-1.11 0,-0.48 -0.17,-0.83 -0.49,-1.07 -0.33,-0.24 -0.73,-0.35 -1.2,-0.35l-2.66 0 0 2.92z"/>
 </g>
</svg>
