<?xml version="1.0" encoding="UTF-8"?>
<!DOCTYPE svg PUBLIC "-//W3C//DTD SVG 1.1//EN" "http://www.w3.org/Graphics/SVG/1.1/DTD/svg11.dtd">
<!-- Creator: CorelDRAW 2021 (64-Bit) -->
<svg xmlns="http://www.w3.org/2000/svg" xml:space="preserve" width="0.148343in" height="0.236378in" version="1.1" style="shape-rendering:geometricPrecision; text-rendering:geometricPrecision; image-rendering:optimizeQuality; fill-rule:evenodd; clip-rule:evenodd"
viewBox="0 0 32.67 52.06"
 xmlns:xlink="http://www.w3.org/1999/xlink"
 xmlns:xodm="http://www.corel.com/coreldraw/odm/2003">
 <defs>
  <style type="text/css">
   <![CDATA[
    .fil2 {fill:#0086FF;fill-rule:nonzero}
    .fil3 {fill:#01437D;fill-rule:nonzero}
    .fil0 {fill:#0BBEFF;fill-rule:nonzero}
    .fil1 {fill:#93C31F;fill-rule:nonzero}
   ]]>
  </style>
 </defs>
 <g id="Layer_x0020_1">
  <metadata id="CorelCorpID_0Corel-Layer"/>
  <g id="_1971955370576">
   <path class="fil0" d="M21.63 6.01l0.23 -6.01c-18.02,15.56 -19.14,28.82 -17.47,36.55l-0.02 0c1.34,7.22 5.8,10.24 5.8,10.24 -2.69,-3.27 -3.55,-7.57 -3.81,-9.57 -0.79,-18.27 15.26,-31.21 15.26,-31.21z"/>
   <path class="fil1" d="M0.09 23.32l-0 0c-0.22,1.74 -0.02,3.7 0.38,5.62 0.04,0.18 0.08,0.36 0.11,0.53 0.01,0.03 0.01,0.06 0.02,0.08 0.01,0.03 0.02,0.07 0.02,0.1 1.06,4.54 3.1,8.65 3.1,8.65 -0.02,-0.06 -0.05,-0.12 -0.07,-0.18 -2.39,-6.29 -3.11,-12.96 -0.82,-19.56 3.02,-8.72 8.47,-14.69 8.47,-14.69 -9.25,6.4 -10.89,13.99 -11.22,19.44z"/>
   <path class="fil2" d="M13.68 34.46c3.56,-9.05 13.52,-18.68 16.12,-21.16l-1.62 -6.28c-16.52,16.24 -18.51,26.21 -18.51,26.21 -2,6.28 -2.28,15.64 12.07,18.51 0,0 -13.27,-4.14 -8.06,-17.28z"/>
   <path class="fil3" d="M27.48 51.82c0.55,-0.08 1.14,-0.17 1.76,-0.28 0,0 -0.17,-0.01 -0.46,-0.04 -0.46,0.03 -0.91,0.01 -1.33,-0.05 0,0.13 0.01,0.26 0.02,0.37zm-3.78 -1.91c-7.74,-6.21 3.02,-19.49 8.97,-25.83 -0.46,-1.57 -1.13,-2.9 -1.62,-4.77 -20.45,18.73 -11.37,30.88 -11.37,30.88 1.8,1.85 3.89,2.17 7.8,1.63 -0.01,-0.11 -0.02,-0.23 -0.02,-0.37 -2.19,-0.3 -3.76,-1.55 -3.76,-1.55z"/>
  </g>
 </g>
</svg>
