<?xml version="1.0" encoding="UTF-8"?>
<!DOCTYPE svg PUBLIC "-//W3C//DTD SVG 1.1//EN" "http://www.w3.org/Graphics/SVG/1.1/DTD/svg11.dtd">
<!-- Creator: CorelDRAW 2021 (64-Bit) -->
<svg xmlns="http://www.w3.org/2000/svg" xml:space="preserve" width="0.343087in" height="0.343276in" version="1.1" style="shape-rendering:geometricPrecision; text-rendering:geometricPrecision; image-rendering:optimizeQuality; fill-rule:evenodd; clip-rule:evenodd"
viewBox="0 0 94.13 94.18"
 xmlns:xlink="http://www.w3.org/1999/xlink"
 xmlns:xodm="http://www.corel.com/coreldraw/odm/2003">
 <defs>
  <style type="text/css">
   <![CDATA[
    .fil4 {fill:black}
    .fil1 {fill:#215434}
    .fil6 {fill:#232323}
    .fil0 {fill:#77A652}
    .fil3 {fill:#FD4D2E}
    .fil2 {fill:#FD4D2E}
    .fil5 {fill:white}
   ]]>
  </style>
 </defs>
 <g id="Layer_x0020_1">
  <metadata id="CorelCorpID_0Corel-Layer"/>
  <path class="fil0" d="M77.74 23.7c1.61,-0.2 2.96,1.09 3.1,2.51 0.16,1.66 -1.06,3.01 -2.53,3.13 -1.69,0.14 -2.96,-1.05 -3.11,-2.54 -0.17,-1.69 1.07,-2.91 2.54,-3.1zm-11.86 21.99c0.3,1.01 -0.29,4.07 -0.58,5.1 -0.23,0.82 -0.46,1.45 -0.76,2.17 -0.14,0.33 -0.3,0.68 -0.45,1 -0.09,0.18 -0.33,0.87 -0.51,0.95 0.15,0.18 0.34,0.54 0.38,0.86 -0.15,-0.08 -0.15,-0.14 -0.28,-0.24 -0.08,-0.06 -0.2,-0.15 -0.28,-0.21 -0.05,0.33 -1,2 -1.21,2.36 -0.95,1.62 -1.69,2.85 -2.79,4.35 -1.1,1.5 -1.67,2.15 -2.75,3.46l-1.7 1.86c-0.16,0.16 -0.31,0.26 -0.47,0.42 -0.16,0.16 -0.26,0.32 -0.42,0.47 -0.16,0.16 -0.29,0.24 -0.46,0.43 -0.29,0.33 -0.56,0.61 -0.87,0.91l-1.38 1.3c-0.17,0.13 -0.29,0.24 -0.46,0.39 -1.19,1.02 -2.78,2.13 -4.14,2.99 -1.39,0.88 -3,1.77 -4.58,2.52 -2.36,1.13 -6.55,2.8 -9.3,3.16 -0.5,0.06 -0.98,0.25 -1.51,0.27l-0.02 0.07c0.01,-0.18 0.01,-0.05 -0.04,-0.1l-0.23 0.08c-0.09,0.02 -0.17,0.03 -0.26,0.04 -0.16,0.03 -0.32,0.05 -0.48,0.07 -2.46,0.33 -4.77,0.3 -7.19,-0.28 -3.93,-0.95 -6.3,-2.05 -9.34,-4.23 -0.16,-0.11 -1.58,-1.23 -1.87,-1.52 -0.37,-0.36 -1.4,-1.33 -1.71,-1.67 -0.72,-0.82 -1.39,-1.58 -2.04,-2.5l-0.9 -1.33c-0.12,0.13 -0.26,0.32 -0.38,0.47 -0.5,0.63 -1.06,1.19 -1.69,1.69 -0.16,0.13 -0.28,0.25 -0.44,0.37 -0.64,0.49 -1.33,0.93 -2.02,1.36 -0.64,0.4 -1.56,0.72 -2.04,1.3 -0.2,0.24 -0.54,0.63 -0.64,1.03 -0.29,1.17 0.87,1.22 1.85,1.5 1.91,0.55 4.11,0.64 6.08,0.41 0.48,-0.06 0.98,-0.14 1.43,-0.24 0.27,-0.06 1.16,-0.35 1.34,-0.29 0.02,0.23 -0.45,1.38 -0.56,1.62 -0.54,1.23 -1.26,2.38 -2.13,3.37 -0.09,0.1 -0.16,0.21 -0.24,0.32 -0.57,0.73 -1.21,1.35 -1.81,2.02 -0.89,0.99 -1.16,1.38 -1.8,2.59 -0.83,1.57 0.14,2.62 1.38,3.45 0.72,0.49 2.27,0.92 3.3,1.09 1.38,0.22 2.71,0.15 4.05,-0.1 0.91,-0.17 2.63,-0.71 3.22,-1.15 0.1,-1.45 -0.04,-3.1 -0.24,-4.49 -0.15,-1.01 -0.37,-1.97 -0.63,-2.93 -0.06,-0.21 -0.28,-0.73 -0.21,-0.88 0.17,0.04 0.19,0.3 0.24,0.48 0.58,2.05 0.95,4.18 1.01,6.33 0.02,0.81 -0.09,1.88 0,2.62 0.11,0.87 0.63,1.03 1.34,1.33 0.6,0.25 1.41,0.47 2.08,0.59 3.23,0.6 6.71,0.66 9.97,0.29 0.4,-0.05 2.05,-0.26 2.26,-0.41 1.18,-0.84 -0.16,-2.79 -0.63,-3.74 -0.99,-2 -0.47,-3.23 -1.3,-5.38 -0.12,-0.32 -0.38,-0.67 -0.45,-0.91 0.87,0.04 1.81,0.19 2.69,0.27 5.76,0.5 11.66,0.05 17.22,-1.51 1.03,-0.29 1.44,-0.58 0.93,0.22 -0.77,1.2 -1.38,2.45 -1.81,3.84 -0.3,0.97 -0.81,3.12 -0.63,4.19 0.11,0.64 0.29,0.65 0.61,0.99 0.91,0.95 2.4,1.92 3.9,2.56 2.46,1.06 5.54,1.38 8.27,0.77 1.03,-0.23 1.68,-0.37 2.12,-1.12 0.48,-0.82 0.14,-1.78 -0.14,-2.61 -0.87,-2.6 -1.81,-4.94 -1.83,-7.85 -0.01,-1.02 0.1,-2.01 0.29,-2.96 0.15,-0.76 0.39,-1.47 0.65,-2.18 0.04,-0.1 0.05,-0.18 0.16,-0.22l-0.21 0.79c-0.28,0.82 -0.49,1.67 -0.61,2.54 -0.54,3.81 0.55,6.33 1.66,9.72 0.08,0.25 0.15,0.57 0.27,0.77 0.4,0.18 1.46,0.35 1.96,0.41 0.72,0.09 1.53,0.11 2.25,0.04 2.03,-0.19 3.59,-0.8 5.06,-1.97 0.81,-0.65 0.73,-0.81 0.26,-1.37 -0.21,-0.25 -0.36,-0.43 -0.55,-0.64 -0.21,-0.22 -0.4,-0.37 -0.59,-0.56l-1.14 -1.2c-0.43,-0.46 -1.46,-2.24 -1.62,-3.06 -0.59,-3.02 -0.87,-4.57 -1.84,-7.53 -0.19,-0.59 -0.39,-1.16 -0.61,-1.73 -0.1,-0.28 -0.22,-0.58 -0.33,-0.86 -0.06,-0.15 -0.11,-0.29 -0.18,-0.41l-0.16 -0.28c-0.04,-0.05 -0.01,-0.02 -0.05,-0.06 -0.29,0.15 -0.52,0.47 -0.76,0.68 -0.13,0.11 -0.26,0.24 -0.39,0.35 -0.12,0.1 -0.23,0.3 -0.43,0.25 0.02,-0.15 0.75,-0.74 0.89,-0.86l1.79 -1.74c0.28,-0.3 0.53,-0.6 0.84,-0.91l0.41 -0.48c0.4,-0.49 0.81,-0.93 1.19,-1.44 2.21,-2.98 3.74,-5.49 5,-9.12 1,-2.87 1.57,-5.78 1.69,-8.91 0.04,-1.12 0.02,-2.3 -0.06,-3.42 -0.08,-1.1 -0.1,-2.21 -0.2,-3.32 -0.1,-1.19 0.12,-2.08 0.64,-2.87 0.94,-1.43 2.83,-2.04 4.26,-2.8 0.46,-0.24 1.96,-1 2.04,-1.49 -0.62,0.04 -0.84,-0.05 -1.1,-0.42 -0.19,-0.28 -0.33,-0.68 -0.44,-1.05 -0.17,-0.61 -0.24,-1.27 -0.33,-1.9 -0.04,-0.25 -0.11,-0.4 -0.15,-0.61 0.32,0.05 0.57,0.13 0.9,0.16 1.41,0.13 3.16,-0.26 4.53,-0.6 0.38,-0.09 0.55,-0.05 0.68,-0.36 1.58,-3.78 -0.01,-7.3 -3.54,-8.54 -0.53,-0.19 -0.94,-0.38 -1.52,-0.52 -3,-0.72 -6.17,-0.9 -9.22,-0.35 -1.79,0.32 -2.77,0.9 -4.13,2l-0.53 0.51c-1.52,1.67 -2.43,3.85 -2.57,6.6 -0.2,4.09 0.25,10.16 0.8,14.46 0.03,0.21 0.11,0.48 0.07,0.7 -0.01,0.07 -0.01,0.04 -0.03,0.09 -0.02,0.05 -0.02,0.04 -0.05,0.07z"/>
  <path class="fil1" d="M29.34 77.11c-1.91,0.18 -6.27,-0.81 -8.18,-1.42 -1.64,-0.52 -5.14,-1.97 -6.6,-2.98 0.21,0.07 0.58,0.28 0.82,0.4 0.8,0.39 1.66,0.78 2.5,1.11 2.33,0.92 4.88,1.7 7.37,2.22 0.72,0.15 3.5,0.67 4.09,0.67zm-17.83 -3.95c0.12,-0.23 0.33,-0.45 0.54,-0.59 0.22,-0.14 0.54,-0.25 0.86,-0.25 -0.13,0.09 -0.24,0.08 -0.43,0.15 -0.29,0.11 -0.62,0.33 -0.83,0.55 -0.08,0.09 -0.04,0.07 -0.14,0.13zm19.35 2.2c-0.07,-0.06 0.01,0.04 -0.08,-0.09 -0,-0 -0.04,-0.07 -0.04,-0.07 -0.45,-0.91 -0.75,-2.07 -0.8,-3.08 -0.05,-0.88 0.06,-1.96 0.28,-2.83 0.05,-0.17 0.23,-0.69 0.24,-0.76 0.01,0.19 -0.07,0.6 -0.1,0.83 -0.18,1.48 -0.13,2.99 0.14,4.45 0.1,0.53 0.29,1.07 0.36,1.56zm3.13 0.19c0.31,-0.06 0.75,-0.27 1.07,-0.38 2.78,-0.94 6.45,-2.75 8.88,-4.28 1.2,-0.76 2.36,-1.49 3.5,-2.33l1.66 -1.25c-0.05,0.12 -0.08,0.13 -0.17,0.21l-0.56 0.56c-0.14,0.12 -0.27,0.22 -0.4,0.35l-0.37 0.34c-2.7,2.46 -5.63,4.2 -9.1,5.51 -0.72,0.27 -3.81,1.31 -4.52,1.28zm19.74 -7.24c-0.23,-0.42 -0.73,-1 -1.04,-1.25 -0.29,-0.23 -0.93,-0.74 -1.34,-0.88 1.01,-0.11 2.34,0.95 2.38,2.13zm-3.11 -3.26c-0,-0.01 -0.01,-0.02 -0.02,-0.02l-0.65 -1.13c-0.35,-0.51 -0.76,-0.85 -0.86,-1.01 0.94,0.13 1.67,1.12 1.57,2.21l-0.04 -0.04zm2.08 -1.12c0.08,-0.14 0.34,-0.4 0.46,-0.51l2.97 -3.54c0.81,-0.99 1.28,-1.64 2.03,-2.65 0.32,-0.44 0.41,-0.49 0.81,-1.05 0.13,-0.19 0.25,-0.39 0.39,-0.54 -0.13,0.41 -0.49,0.85 -0.65,1.25 -0.26,0.64 -1.03,1.69 -1.44,2.28 -0.6,0.86 -1.86,2.37 -2.61,3 -0.16,0.13 -0.3,0.3 -0.47,0.46 -0.3,0.28 -1.17,1.09 -1.49,1.3zm-44.87 0.24l0.14 1.02 -0.2 -0.52c-0,0.19 0.13,0.48 0.06,0.62l0.06 0.16c0.03,-0.11 -0.03,-0.06 0.04,-0.04 0.05,0.01 0.05,0.03 0.08,0.07 0.05,0.06 0.11,0.16 0.15,0.22 0.12,0.17 0.22,0.3 0.33,0.45l3.83 4.57c0.17,0.15 0.92,1 1.11,1.14 -0.02,-0.22 -0.1,-0.43 -0.12,-0.69 -0.1,-1.1 0.33,-2.07 0.95,-2.9 0.15,-0.2 0.57,-0.72 0.74,-0.77 -0.12,0.05 -0.66,0.86 -0.81,1.12 -0.48,0.84 -0.82,2.21 -0.67,3.18 0.07,0.47 0.68,0.72 0.87,1.08 -0.5,-0.27 -2.37,-2 -2.82,-2.47 -0.87,-0.9 -1.67,-1.79 -2.42,-2.82 -0.5,-0.69 -2.2,-3.19 -2.39,-3.86 0.19,0.17 0.79,1.25 1,1.37 -0.1,-0.22 -0.51,-1.57 -0.56,-1.9 -0.01,-0.04 -0.02,-0.13 -0.02,-0.15 -0.04,-0.12 -0.01,-0.05 -0.07,-0.12 -0.24,-0.4 -0.3,-0.8 -0.69,-1.06 -0.77,-0.53 -2.04,-0.11 -2.02,1.05 0.01,0.55 1.33,3.19 1.6,3.68 0.21,0.39 0.39,0.75 0.62,1.13l0.65 1.1 0.9 1.33c0.65,0.91 1.31,1.68 2.04,2.5 0.31,0.35 1.35,1.31 1.71,1.67 0.28,0.28 1.71,1.4 1.87,1.52 3.04,2.18 5.41,3.28 9.34,4.23 2.42,0.58 4.73,0.61 7.19,0.28 0.16,-0.02 0.32,-0.05 0.48,-0.07 0.09,-0.02 0.17,-0.03 0.26,-0.04l0.23 -0.08c-0.05,-0.22 -0.18,-0.45 -0.25,-0.75 -0.17,-0.76 -0.05,-1.81 0.43,-2.37 -0.32,1.6 -0.4,1.39 -0.12,3.14 0.52,-0.02 1.01,-0.2 1.51,-0.27 2.74,-0.36 6.94,-2.03 9.3,-3.16 1.58,-0.75 3.19,-1.64 4.58,-2.52 1.37,-0.86 2.95,-1.97 4.14,-2.99 0.17,-0.15 0.3,-0.26 0.46,-0.39l1.38 -1.3c0.31,-0.3 0.58,-0.58 0.87,-0.91 0.17,-0.19 0.3,-0.27 0.46,-0.43 0.16,-0.15 0.26,-0.31 0.42,-0.47 0.16,-0.16 0.31,-0.26 0.47,-0.42l1.7 -1.86c1.08,-1.31 1.65,-1.96 2.75,-3.46 1.1,-1.5 1.84,-2.72 2.79,-4.35 0.21,-0.36 1.16,-2.03 1.21,-2.36 -0.19,-0.21 -0.93,-0.56 -1.32,-0.68 -0.99,-0.31 -1.11,-0.14 -1.75,-0.22 0.8,-0.52 1.79,-0.64 2.65,-0.05 0.29,0.2 0.37,0.34 0.59,0.55 0.18,-0.07 0.42,-0.77 0.51,-0.95 0.16,-0.32 0.31,-0.67 0.45,-1 0.3,-0.72 0.53,-1.35 0.76,-2.17 0.29,-1.03 0.88,-4.09 0.58,-5.1 -0.06,-0.44 -0.86,-1.24 -1.54,-0.92 -1.05,0.5 -0.76,1.81 -0.79,2.51 -0.01,0.2 -0.12,0.31 -0.2,0.47 -0.36,0.72 -0.85,1.34 -1.35,1.96 -0.1,0.13 -0.18,0.23 -0.28,0.35 -0.31,0.39 -1.69,2.05 -2.14,2.51 -0.13,0.14 -0.19,0.18 -0.31,0.32 -0.34,0.41 -0.7,0.73 -0.98,1.03 -0.55,0.61 -1.25,1.23 -1.6,1.63 -0.25,0.28 -0.46,0.41 -0.68,0.65l-0.52 0.48c-0.51,0.49 -2.66,2.03 -3.21,2.37 -3.46,2.16 -8.71,4.4 -12.74,5.65 -2.18,0.68 -4.03,1.18 -6.28,1.63 -0.77,0.16 -1.51,0.24 -2.3,0.34 -4.59,0.58 -10.34,0.32 -14.74,-0.37 -1.11,-0.17 -5.51,-1.01 -6.56,-1.36 -0.99,-0.33 -1.11,-0.49 -1.83,-0.78z"/>
  <path class="fil2" d="M21.3 17.19c-0.52,7.76 0.7,15.37 3.03,22.63 0.3,0.94 0.67,1.85 0.96,2.75 0.31,-0.02 10.04,-2.52 10.23,-2.57 1.04,-0.27 10.03,-2.49 10.17,-2.61 -0.3,-0.67 -0.58,-1.31 -0.89,-1.96 -1.24,-2.62 -2.64,-4.95 -4.4,-7.2 -0.33,-0.42 -0.96,-1.23 -1.3,-1.6l-1.01 -1.15c-0.12,-0.14 -0.24,-0.25 -0.36,-0.38 -0.48,-0.54 -1.59,-1.62 -2.18,-2.17 -1.51,-1.43 -4.05,-3.32 -5.78,-4.36 -1.72,-1.03 -3.08,-1.6 -5.05,-2.2 -0.33,-0.1 -0.86,0.07 -1.2,0.15 -0.54,0.13 -1.84,0.45 -2.23,0.67z"/>
  <path class="fil2" d="M5.01 46.32c-0,1.13 0.11,4.77 0.49,5.56 0.31,-0.11 0.77,-0.35 1.08,-0.5l14.09 -6.8c0.72,-0.34 1.49,-0.69 2.18,-1.05 -0.04,-0.15 -0.12,-0.31 -0.17,-0.49l-0.47 -1.57c-1.81,-6.4 -2.8,-13.79 -2.3,-20.51 0.04,-0.56 0.07,-1.09 0.13,-1.63 0.06,-0.52 0.14,-1.11 0.17,-1.64 -0.81,0.25 -2.76,1.49 -3.47,2.01 -1.26,0.93 -1.82,1.5 -2.89,2.58 -0.21,0.21 -0.41,0.46 -0.63,0.71 -1.36,1.5 -2.94,3.96 -3.91,5.72 -2.48,4.52 -4.29,11.41 -4.29,17.6z"/>
  <path class="fil3" d="M48.12 37.42l9.01 0.63c-0.48,-0.83 -0.51,-0.97 -1.1,-1.88 -0.41,-0.64 -0.83,-1.22 -1.25,-1.8l-3.05 -3.78c-0.12,-0.14 -0.25,-0.27 -0.37,-0.41 -0.39,-0.46 -2.15,-2.27 -2.63,-2.69 -0.38,-0.33 -0.81,-0.77 -1.21,-1.09l-1.67 -1.38c-0.94,-0.76 -2.51,-1.91 -3.54,-2.55 -2.79,-1.73 -4.87,-2.93 -8.1,-4.09 -0.82,-0.29 -4.02,-1.27 -4.87,-1.19 0.1,0.02 0.25,0.13 0.38,0.18 1.51,0.57 2.87,1.59 4.18,2.51 0.5,0.35 0.95,0.67 1.42,1.03 1.26,0.96 2.81,2.27 3.92,3.4 0.2,0.21 0.42,0.39 0.62,0.61l2.83 3.27c2.26,2.94 3.47,5.01 5.06,8.39 0.12,0.26 0.25,0.61 0.38,0.84z"/>
  <path class="fil4" d="M42.08 54.68c0.11,-0.82 -0.27,-1.73 -0.67,-2.14 -0.26,-0.26 -0.44,-0.45 -0.82,-0.63 -1.17,-0.57 -2.31,-0.47 -3.27,0.3 -0.44,0.36 -0.9,1 -1.01,1.82 -0.24,1.71 1.1,2.94 2.56,3.12 1.74,0.21 3,-0.97 3.2,-2.48z"/>
  <path class="fil4" d="M16.41 61.44c0.08,1.03 0.59,2.09 1.33,2.66 0.83,0.63 2.06,0.56 2.74,-0.42 1.14,-1.66 0.42,-4.82 -1.78,-5.17 -1.48,-0.24 -2.4,1.45 -2.29,2.94z"/>
  <path class="fil5" d="M79.99 26.17c-0.15,0.51 -0.67,0.98 -1.36,0.79 -1.4,-0.38 -0.85,-2.53 0.59,-2.15 0.48,0.13 0.97,0.7 0.78,1.36zm-2.26 -2.47c-1.47,0.18 -2.71,1.4 -2.54,3.1 0.15,1.49 1.42,2.68 3.11,2.54 1.47,-0.12 2.69,-1.47 2.53,-3.13 -0.14,-1.42 -1.49,-2.71 -3.1,-2.51z"/>
  <path class="fil2" d="M4.6 52.04c-0.01,-0.92 -0.12,-1.9 -0.2,-2.81 -0.8,-9.61 2.14,-19.01 8.1,-25.94 0.76,-0.89 2.07,-2.3 2.92,-3.1 0.19,-0.18 0.45,-0.4 0.62,-0.6 -0.58,0.28 -2.6,2.16 -3.03,2.62 -0.89,0.94 -1.76,1.95 -2.56,3.09 -3.53,4.95 -5.52,10.11 -6.32,16.36 -0.22,1.75 -0.26,3.57 -0.21,5.37 0.04,1.36 0.16,2.55 0.39,3.86 0.04,0.24 0.2,0.99 0.29,1.16z"/>
  <path class="fil3" d="M57.77 37.73c-0.13,-0.71 -2.99,-4.76 -3.63,-5.57l-1.39 -1.7c-0.24,-0.29 -0.47,-0.54 -0.71,-0.82 -0.24,-0.28 -0.49,-0.51 -0.74,-0.78 -0.42,-0.45 -2.19,-2.2 -2.72,-2.63l-1.24 -1.06c-2.75,-2.19 -4.88,-3.71 -8.38,-5.45 -2.2,-1.1 -4.27,-1.87 -6.67,-2.55 -0.54,-0.15 -1.99,-0.57 -2.49,-0.59l2.36 0.67c4.96,1.46 10.24,4.3 14.12,7.37 0.3,0.23 0.54,0.44 0.84,0.68 0.4,0.33 2.1,1.8 2.44,2.17 0.5,0.55 1.02,1 1.51,1.54 0.12,0.13 0.24,0.25 0.36,0.38l1.8 2.06c1.43,1.64 2.99,3.93 4.2,5.8l0.34 0.46z"/>
  <path class="fil4" d="M29.59 51.17l0.53 -0.01 4.67 -0.97c1.52,-0.34 3.03,-0.74 4.54,-1.11 1.52,-0.38 3.01,-0.74 4.52,-1.13 0.42,-0.11 3.99,-1.11 4.36,-1.29l-0.3 0.03c-0.04,-0.1 -0.04,0.08 0.01,-0.04 0.04,-0.08 0.05,0.03 0.02,-0.04 -0.56,0.05 -4.17,0.85 -4.75,0.98 -1.56,0.36 -3.04,0.75 -4.59,1.14 -1.53,0.38 -3.06,0.74 -4.56,1.16 -0.75,0.21 -1.48,0.43 -2.22,0.64 -0.72,0.21 -1.54,0.48 -2.23,0.64z"/>
  <path class="fil4" d="M83.73 15.45c-0.02,-0.83 0.11,-1.2 0.4,-1.89 0.59,-1.41 1.49,-3.2 2.52,-4.33 -0.12,1.21 -1.34,3.41 -1.26,4.32 -0.01,-0.31 1.39,-2.59 1.67,-3.15 0.22,-0.44 0.63,-1.33 0.49,-1.91 -0.16,-0.66 -0.75,-0.76 -1.37,0.02l-0.27 0.32c-0.28,0.35 -0.53,0.67 -0.76,1.06 -0.66,1.11 -1.1,2.16 -1.42,3.45 -0.13,0.55 -0.3,1.47 -0.04,2.03 0.04,0.09 0.02,0.05 0.05,0.08z"/>
  <path class="fil4" d="M55.6 48.5c-0.83,0.24 -0.28,2.26 -0.03,2.86 0.21,0.51 0.6,1.38 1.02,1.69 0.96,0.72 1.12,-0.27 1.02,-1.17 -0.11,-0.96 -0.62,-2.53 -1.36,-3.17 -0.11,-0.1 -0.45,-0.27 -0.64,-0.21z"/>
  <path class="fil5" d="M33.98 75.55c0.72,0.04 3.8,-1 4.52,-1.28 3.47,-1.31 6.4,-3.05 9.1,-5.51l0.37 -0.34c0.13,-0.13 0.26,-0.23 0.4,-0.35l0.56 -0.56c0.1,-0.08 0.12,-0.1 0.17,-0.21l-1.66 1.25c-1.14,0.83 -2.3,1.57 -3.5,2.33 -2.42,1.54 -6.1,3.35 -8.88,4.28 -0.32,0.11 -0.77,0.31 -1.07,0.38z"/>
  <path class="fil4" d="M23.03 50.4c-0.29,0.07 -0.71,0.28 -1.01,0.4 -1.82,0.74 -4.96,2.13 -6.66,3 -0.62,0.32 -1.27,0.57 -1.89,0.89 -0.61,0.31 -1.23,0.6 -1.85,0.9 -0.63,0.31 -1.23,0.61 -1.86,0.93 -0.35,0.18 -1.58,0.76 -1.81,0.94l0.37 -0.07c-0.08,0.05 -0.05,0.03 -0.09,0.07 0.25,-0.07 1.63,-0.68 1.97,-0.83l3.84 -1.7c0.62,-0.27 1.26,-0.57 1.88,-0.87 0.63,-0.31 1.28,-0.57 1.91,-0.88 1.28,-0.63 2.44,-1.16 3.71,-1.83l1.78 -0.95 -0.9 0.36 0.63 -0.36z"/>
  <path class="fil4" d="M28.95 48.97l0.64 -0.11c-0.05,0.04 0.03,0.01 -0.08,0.06l-0.33 0.09c0.26,-0 0.86,-0.16 1.16,-0.22 2.73,-0.57 5.51,-1.24 8.21,-1.9 1.55,-0.38 3.12,-0.71 4.66,-1.1 0.77,-0.19 1.54,-0.4 2.31,-0.59 0.69,-0.17 1.6,-0.4 2.19,-0.69 -1.17,-0.02 -8.21,1.82 -9.5,2.12 -2.74,0.64 -5.4,1.32 -8.11,2.04 -0.3,0.08 -0.9,0.28 -1.15,0.31z"/>
  <path class="fil4" d="M20.98 15.56l-0.1 -0.5c0.1,0.19 0.2,0.4 0.29,0.58l-0.13 -0.57c0.3,0.61 0.15,0.52 0.15,0.81 0,0.34 0.23,0.57 0.37,0.73l0 -0.13 0.17 0.17 -0.06 -0.38c-0,0.23 0.3,0.36 0.56,0.34 0.13,-0.16 0.19,-0.24 0.08,-0.5 -0.39,-0.9 -0.47,-0.49 -0.65,-0.8 -0.08,-0.13 -0.16,-0.38 -0.17,-0.55l0.27 0.58c-0.03,-0.43 -0.76,-3.09 -1.01,-3.63 -0.15,-0.32 -0.3,-0.83 -0.76,-0.79 -0.84,0.08 0.35,2.93 0.55,3.53 0.13,0.39 0.25,0.77 0.44,1.09z"/>
  <path class="fil4" d="M28.09 51.86c-0.17,-0.58 -0.44,-1.25 -0.58,-1.79 0.02,0.58 0.85,3.09 0.86,3.51 -0.01,-0.17 -0.38,-1.27 -0.48,-1.57 -0.17,-0.52 -0.32,-1.1 -0.5,-1.57 0.03,0.36 0.8,3.16 0.95,3.72 0.34,1.22 0.67,2.43 1.01,3.64 0.68,2.39 1.45,4.78 2.16,7.12l-0.77 -3.12c0.2,0.66 0.89,3 1.03,3.25 -0.03,-0.26 -0.39,-1.57 -0.48,-1.94 -0.8,-3.15 -1.68,-6.32 -2.63,-9.41 -0.19,-0.61 -0.38,-1.23 -0.57,-1.85z"/>
  <path class="fil4" d="M88.76 12.75c0.69,-0.88 1.35,-1.65 2.1,-2.34l0.58 -0.53c0.46,-0.39 1.48,-1.15 2.06,-1.33 -0.23,0.72 -1.92,2.47 -2.04,2.73 0.29,-0.18 0.81,-0.68 1.1,-0.91 0.12,-0.1 0.13,-0.12 0.24,-0.24l0.79 -0.78c0.19,-0.2 0.81,-0.94 0.38,-1.35 -0.51,-0.5 -2.28,0.85 -2.67,1.18 -1.1,0.93 -2.05,2.18 -2.55,3.56z"/>
  <path class="fil4" d="M18.77 16.65c0.01,-0.07 -0.01,0.01 0,-0.06l0.01 -0.07c0,-0.01 0,-0.02 0.01,-0.03 0.07,0.21 0.28,0.28 0.54,0.21 0.12,-0.25 0.01,-0.33 -0.06,-0.62 -0.25,-0.96 -0.81,-3.16 -1.18,-3.95 -0.1,-0.22 -0.19,-0.34 -0.49,-0.37 -1.27,-0.14 1.03,4.57 1.17,4.89z"/>
  <path class="fil4" d="M23.32 53.53c-0.22,0.05 -0.63,0.25 -0.86,0.35 -0.29,0.13 -0.56,0.24 -0.86,0.37 -0.56,0.24 -1.13,0.48 -1.69,0.73 -1.11,0.49 -2.24,0.97 -3.33,1.5 -1.09,0.53 -2.23,0.99 -3.3,1.54 -0.53,0.27 -1.09,0.53 -1.62,0.79 -0.15,0.07 -1.51,0.68 -1.61,0.83l0.96 -0.38 -0.98 0.51c0.25,-0.06 3.07,-1.31 3.41,-1.45 0.85,-0.36 9.82,-4.48 9.86,-4.66l-1.04 0.42 1.06 -0.54z"/>
  <path class="fil5" d="M7.83 65.3l-0.05 -0.19c-0.2,-0.12 -0.8,-1.19 -1,-1.37 0.2,0.68 1.9,3.18 2.39,3.86 0.75,1.03 1.54,1.92 2.42,2.82 0.45,0.47 2.32,2.2 2.82,2.47 -0.19,-0.36 -0.8,-0.61 -0.87,-1.08 -0.15,-0.98 0.19,-2.34 0.67,-3.18 0.14,-0.26 0.68,-1.07 0.81,-1.12 -0.17,0.05 -0.59,0.57 -0.74,0.77 -0.62,0.83 -1.05,1.8 -0.95,2.9 0.02,0.25 0.1,0.46 0.12,0.69 -0.19,-0.15 -0.95,-1 -1.11,-1.14l-3.83 -4.57c-0.11,-0.15 -0.21,-0.28 -0.33,-0.45 -0.05,-0.07 -0.1,-0.16 -0.15,-0.22 -0.03,-0.04 -0.04,-0.06 -0.08,-0.07 -0.08,-0.02 -0.01,-0.07 -0.04,0.04l-0.06 -0.16z"/>
  <path class="fil4" d="M33.95 44.57c0.11,0.23 0.1,0.34 0.4,0.27 0.17,-0.52 -0.09,-1.38 -0.34,-1.77 -0.29,-0.47 -1.02,-0.72 -1.54,-0.21 -0.26,0.25 -0.21,0.52 -0.14,0.88 0.11,0.53 0.32,1.34 0.95,1.3 0.15,-0.01 0.31,-0.08 0.4,-0.15 0.13,-0.1 0.17,-0.2 0.27,-0.31z"/>
  <path class="fil4" d="M25.75 46.65l0.06 -0.32c0.02,0.11 0.14,0.32 0.19,0.43 -0.01,-0.55 -0.09,-1.48 -0.3,-1.91 -0.38,-0.77 -2.34,-0.68 -1.19,1.71 0.12,0.26 0.29,0.4 0.57,0.48 0.39,0.11 0.58,-0.09 0.68,-0.38z"/>
  <path class="fil4" d="M25.09 51.7c-0.09,-0.26 -0.23,-0.61 -0.3,-0.84l0.23 1.12c0,-0.12 -0.06,-0.28 -0.14,-0.36 0.08,0.66 1.65,6.1 1.86,6.83 0.32,1.11 0.66,2.23 0.98,3.34l1 3.27 -0.38 -1.58c0.01,0.28 0.54,1.52 0.52,1.7 -0,-0.28 -0.35,-1.44 -0.45,-1.81l-1.49 -5.42c-0.34,-1.2 -0.63,-2.42 -1,-3.61l-0.82 -2.63z"/>
  <path class="fil4" d="M48.94 46.04c-0.06,-0.2 -0.32,-0.78 -0.31,-0.93 0.01,0.25 0.33,1.31 0.42,1.65 0.46,1.68 2.91,10.18 3.45,11.4l-0.21 -0.9c0.03,0.19 0.15,0.53 0.26,0.69 -0.05,-0.42 -0.32,-1.24 -0.44,-1.69 -0.15,-0.56 -0.31,-1.11 -0.46,-1.66 -0.29,-1.1 -0.62,-2.2 -0.94,-3.3 -0.32,-1.1 -0.68,-2.14 -1.01,-3.23 -0.1,-0.35 -1.05,-3.12 -1.04,-3.19l0.27 1.15z"/>
  <path class="fil4" d="M26.77 43.66c0.28,0.02 1.99,-0.41 2.4,-0.5 0.81,-0.18 1.61,-0.37 2.42,-0.55 3.79,-0.87 8.16,-1.93 11.92,-2.95 0.76,-0.21 1.59,-0.44 2.33,-0.61 -0.32,0.01 -4.41,0.98 -4.81,1.07 -3.13,0.71 -6.43,1.52 -9.55,2.31l-4.72 1.24z"/>
  <path class="fil4" d="M6.73 52.65c2.28,-0.99 5.28,-2.48 7.54,-3.61 1.26,-0.62 2.51,-1.24 3.73,-1.88 0.47,-0.25 3.5,-1.81 3.65,-1.96 -0.33,0.09 -3.43,1.59 -3.8,1.77 -2.26,1.07 -5.26,2.58 -7.47,3.75 -0.61,0.32 -1.23,0.63 -1.83,0.96l-1.82 0.97z"/>
  <path class="fil4" d="M43.25 57.02c0.21,-0.17 0.59,-0.79 0.7,-1.07 -0.05,0.38 -0.4,0.8 -0.52,1.11 0.46,-0.34 0.97,-1.68 1.07,-2.32 0.17,-1.07 -0.07,-2 -0.48,-2.83 -0.42,-0.84 -0.93,-1.32 -1.62,-1.8 -0.5,-0.34 -1.78,-0.9 -2.57,-0.79 0.12,-0.04 1.06,0.26 1.22,0.33 1.93,0.81 3.16,2.75 3.02,4.95 -0.03,0.48 -0.13,0.91 -0.27,1.33 -0.22,0.66 -0.41,0.79 -0.54,1.11z"/>
  <path class="fil5" d="M52.7 63.94c0.31,-0.21 1.19,-1.03 1.49,-1.3 0.17,-0.16 0.31,-0.33 0.47,-0.46 0.76,-0.62 2.01,-2.14 2.61,-3 0.41,-0.59 1.18,-1.64 1.44,-2.28 0.16,-0.39 0.51,-0.84 0.65,-1.25 -0.14,0.16 -0.25,0.36 -0.39,0.54 -0.4,0.56 -0.49,0.61 -0.81,1.05 -0.75,1.02 -1.22,1.66 -2.03,2.65l-2.97 3.54c-0.13,0.11 -0.38,0.37 -0.46,0.51z"/>
  <path class="fil4" d="M24.6 14.95l-0.11 -0.56c0.05,0.15 0.16,0.31 0.2,0.49 0.06,0.24 -0.01,0.45 0.26,0.78 0.11,0.13 0.56,0.27 0.76,0.21 0.12,-0.25 0.01,-0.42 -0.23,-0.79 -0.17,-0.27 -0.45,-0.44 -0.74,-0.25 -0.07,-0.49 -0.29,-1.15 -0.43,-1.63 -0.41,-1.43 -0.71,-2.53 -1.29,-3.91 -0.09,-0.21 -0.25,-0.52 -0.31,-0.7l0.08 0.49c-0.02,-0.11 -0.17,-0.41 -0.24,-0.5 0.07,1.15 1.36,4.67 1.86,5.98 0.05,0.14 0.1,0.29 0.19,0.38z"/>
  <path class="fil4" d="M79.25 25.23c0.53,-0.14 0.74,0.7 0.18,0.84 -0.53,0.13 -0.8,-0.68 -0.18,-0.84zm0.75 0.94c0.19,-0.65 -0.29,-1.23 -0.78,-1.36 -1.44,-0.39 -1.99,1.76 -0.59,2.15 0.69,0.19 1.22,-0.27 1.36,-0.79z"/>
  <path class="fil4" d="M16.01 3.41l0.04 -1.04c-0.27,0.63 -0.85,6.83 -0.8,7.75l0.3 -2.23 -0.14 2.14c0.1,-0.24 0.31,-2.06 0.37,-2.59l0.05 -0.3c0.02,-0.06 0.03,-0.07 0.04,-0.1 -0.01,0.67 0.4,1 0.4,1 0.05,0.17 -0.02,-0.05 0.08,-0 0.03,0.02 0.06,0.06 0.14,0.11l-0.07 -0.22 0.21 0.08c0.55,0.13 0.17,-0.59 0.02,-0.8 -0.13,-0.18 -0.49,-0.41 -0.71,-0.25 -0.01,0.01 -0.04,0.04 -0.05,0.04l-0.05 0.05c0.08,-1.1 0.47,-3.78 0.37,-4.73 0.01,0.09 -0.06,0.37 -0.08,0.51l-0.11 0.54c-0,0.01 -0.01,0.02 -0.01,0.03z"/>
  <path class="fil5" d="M29.34 77.11c-0.59,0.01 -3.37,-0.52 -4.09,-0.67 -2.48,-0.52 -5.04,-1.3 -7.37,-2.22 -0.83,-0.33 -1.69,-0.72 -2.5,-1.11 -0.24,-0.11 -0.6,-0.33 -0.82,-0.4 1.46,1.01 4.96,2.46 6.6,2.98 1.91,0.61 6.26,1.6 8.18,1.42z"/>
  <path class="fil4" d="M28.2 46.04l-0.11 -0.52c0.26,0.21 0.38,0.37 0.67,0.4 1.34,0.16 0.99,-1.12 0.35,-1.73 -0.2,-0.19 -0.34,-0.35 -0.74,-0.29 -0.8,0.11 -0.79,0.83 -0.58,1.43 0.04,0.14 0.11,0.28 0.17,0.39l0.22 0.31c0,0 0.01,0.01 0.02,0.02z"/>
  <path class="fil4" d="M21.62 48.7c0.1,-0.02 0.38,-0.14 0.45,-0.22 0.08,-0.09 0.05,-0.09 0.16,-0.18 0.12,-0.1 0.07,-0.08 0.21,-0 0.28,-1.94 -0.98,-2.25 -1.48,-1.82 -0.47,0.4 -0.3,0.79 -0.05,1.32l0.52 0.85c0.12,0.1 0,0.01 0.08,-0.01 0.07,-0.01 0.01,0 0.12,0.07z"/>
  <path class="fil4" d="M40.69 42.56c0.12,0.08 0.06,0.09 0.18,0.17 0.09,-1.07 -0.6,-1.94 -1.28,-1.78 -0.25,0.06 -0.48,0.26 -0.5,0.54 -0.04,0.54 0.28,1.26 0.52,1.55 0.4,0.48 1.08,0.3 1.08,-0.48z"/>
  <path class="fil4" d="M18.42 50.19l0.25 0.2c0.1,-0.65 0.15,-1.14 -0.21,-1.65 -0.28,-0.41 -0.87,-0.74 -1.35,-0.25 -0.6,0.61 0.22,1.4 0.47,1.72 0.04,0.05 0.24,0.54 0.64,0.28 0.14,-0.09 0.12,-0.15 0.2,-0.3z"/>
  <path class="fil4" d="M13.71 52.39l0.08 -0.13c0.19,0.25 0.57,0.22 0.66,-0.12 0.09,0.04 0.06,0.03 0.15,0.08 0.12,-0.52 0.2,-0.9 -0.02,-1.41 -0.41,-0.95 -1.75,-0.88 -1.54,0.57 0.06,0.45 0.41,0.84 0.68,1.01z"/>
  <path class="fil4" d="M41.98 40.65c-0.6,0.15 -0.62,0.74 -0.41,1.3 0.18,0.46 0.34,1.11 1.03,0.93 0.76,-0.21 0.52,-0.95 0.45,-1.32 -0.05,-0.3 -0.14,-0.56 -0.31,-0.7 -0.16,-0.14 -0.47,-0.28 -0.76,-0.2z"/>
  <path class="fil4" d="M53.98 56.56l0.04 -0.18c-0.02,-0.33 -0.28,-1.1 -0.38,-1.47 -0.75,-2.72 -1.69,-6.06 -2.58,-8.69 -0.04,-0.12 -0.3,-0.97 -0.37,-1 -0.05,-0.02 0.04,0.15 -0.1,-0.13 -0.01,-0.01 -0.03,-0.05 -0.03,-0.06 -0.01,-0.01 -0.01,-0.02 -0.02,-0.03 -0,-0.01 -0.01,-0.02 -0.02,-0.03 0.09,0.67 1.43,5.18 1.65,5.89 0.29,0.95 0.6,1.9 0.9,2.85l0.9 2.83z"/>
  <path class="fil4" d="M35.42 44.45c0.01,-0.1 -0.02,-0.09 0.04,-0.17 0.16,0.13 0.43,0.08 0.61,-0.01 0.21,-0.11 0.23,-0.26 0.26,-0.52 0,0.01 0.15,0.31 0.25,0.35 0.15,-0.61 -0.4,-2.05 -1.34,-1.78 -0.42,0.12 -0.54,0.6 -0.41,1.1 0.06,0.22 0.13,0.39 0.25,0.57 0.12,0.19 0.23,0.31 0.35,0.46z"/>
  <path class="fil4" d="M30.59 43.41c-0.22,0.11 -0.36,0.3 -0.39,0.64 -0.02,0.29 0.25,0.83 0.44,1.05 0.15,0.18 0.1,-0.06 0.26,0.19 0.35,0.54 1.22,0.29 1.13,-0.34 -0.03,-0.21 -0.67,-1.9 -1.44,-1.53z"/>
  <path class="fil4" d="M20.09 48.88c0.15,0.08 0.23,0.18 0.37,0.26 0.13,-1.78 -1.29,-2.36 -1.64,-1.46 -0.1,0.26 -0.01,0.58 0.12,0.77 0.19,0.28 0.25,0.57 0.55,0.94 0.13,0.15 0.1,0.13 0.25,0.13 0.42,0.01 0.41,-0.24 0.35,-0.64z"/>
  <path class="fil4" d="M9.96 54.26l0.15 -0.08c0.06,0.11 0.12,0.18 0.22,0.25l-0.01 -0.42c0.34,0.04 0.12,0.12 0.44,0.27 0.19,-0.35 0.18,-1.03 0.03,-1.4 -0.5,-1.23 -1.93,-0.65 -1.45,0.33 0.25,0.52 0.21,0.7 0.61,1.06z"/>
  <path class="fil4" d="M12.07 53.38l0.11 -0.11c0,-0 0.01,-0 0.02,-0l0.27 -0.03c0.07,0.11 0.09,0.12 0.19,0.21 0.16,-0.33 0.1,-1.21 -0.04,-1.55 -0.14,-0.33 -0.55,-0.82 -1.09,-0.61 -0.43,0.16 -0.5,0.78 -0.24,1.2 0.12,0.2 0.25,0.29 0.37,0.49 0.44,0.7 0.11,0.26 0.41,0.4z"/>
  <path class="fil4" d="M44.4 42.21l-0.03 -0.63c0.17,0.23 0.2,0.46 0.45,0.56 0.35,0.14 0.52,-0.09 0.66,-0.3 0.07,0.03 0.02,0 0.08,0.04 0,0 0.08,0.06 0.08,0.06 -0.09,-0.64 -0.33,-2.09 -1.11,-1.86 -0.63,0.18 -0.65,1.56 -0.14,2.13z"/>
  <path class="fil4" d="M37.39 43.6c0.01,-0.01 0.01,-0.03 0.01,-0.02 0.02,0.07 0.02,-0.04 0.02,-0.05l0.02 -0.05c0,-0.01 0.01,-0.02 0.01,-0.03 0.15,0.17 0.47,0.29 0.72,0.21 0.29,-0.09 0.31,-0.33 0.33,-0.68l0.16 0.32c0.19,-0.74 -0.42,-1.61 -1.12,-1.5 -0.35,0.05 -0.59,0.38 -0.53,0.8 0.05,0.37 0.25,0.7 0.38,1.01z"/>
  <path class="fil4" d="M17.61 7.61l-0.03 -0.35c0.14,0.5 0.24,0.34 0.44,0.51 -0.11,0.08 -0.64,0.29 -1.12,0.62 -0.33,0.22 -0.73,0.53 -0.92,0.82 0.16,-0.09 0.32,-0.25 0.51,-0.33l-0.24 0.26c-0.06,0.07 0,-0.03 -0.05,0.08 0.35,-0.19 0.61,-0.4 1.11,-0.66 0.39,-0.21 0.78,-0.38 1.22,-0.53 0.49,-0.17 1.49,-0.46 2.03,-0.57 0.13,-0.03 0.25,-0.05 0.37,-0.07 0.06,-0.01 0.15,-0 0.2,-0.01 0.05,-0.01 0.06,-0 0.11,-0.02 0.1,-0.04 0.03,0.01 0.1,-0.06 -0.98,-0.13 -2.17,0.05 -3.04,0.38 -0.01,-0.01 -0.01,-0.03 -0.01,-0.02 -0,0.01 -0.01,-0.02 -0.01,-0.02 -0.37,-1.18 -1.24,-1.14 -1.01,-0.44 0.02,0.07 0.11,0.26 0.14,0.3 0.08,0.1 0.02,0.02 0.09,0.02l0.14 0.08z"/>
  <path class="fil4" d="M23.59 14.65c0.05,-0.29 -0.22,-0.83 -0.3,-1.12 -0.15,-0.48 -0.7,-2.25 -0.91,-2.61 -0.09,-0.15 -0.36,-0.27 -0.43,-0.12 -0.09,0.2 0.46,1.93 0.56,2.22l0.61 1.51c0.06,0.09 0.12,0.11 0.23,0.15 0.15,0.04 0.12,0.04 0.25,-0.03z"/>
  <path class="fil4" d="M34.68 53.5c0.05,-0.15 0.1,-0.66 0.17,-0.91 0.09,-0.3 0.21,-0.55 0.29,-0.81 -1.93,2.99 0.37,6.85 3.64,7.15 -0.65,-0.06 -1.6,-0.55 -2.03,-0.88 -1.18,-0.89 -1.91,-2.31 -1.94,-3.86 -0.02,-1.03 0.21,-1.56 0.51,-2.37 -0.28,0.48 -0.58,1.04 -0.65,1.68z"/>
  <path class="fil4" d="M8.17 54.8c0.38,0.19 0.24,0.05 0.43,0.08 0.04,0.01 0.32,0.2 0.38,0.24 0.18,-0.88 -0.16,-2.3 -0.95,-2 -0.4,0.15 -0.45,0.59 -0.35,1.07 0.06,0.28 0.04,0.36 0.18,0.6 0.04,0.07 0.12,0.19 0.2,0.2 0.16,0.01 0.06,-0.1 0.1,-0.19z"/>
  <path class="fil4" d="M59.92 44.95l-0.26 -0.06c-2.04,-0.21 -7.2,-0.66 -8.86,-0.53 1.18,0.28 7.76,0.64 9.13,0.59z"/>
  <path class="fil5" d="M63.4 55.3c0.08,0.06 0.2,0.15 0.28,0.21 0.13,0.11 0.13,0.16 0.28,0.24 -0.04,-0.32 -0.22,-0.67 -0.38,-0.86 -0.22,-0.21 -0.3,-0.36 -0.59,-0.55 -0.87,-0.59 -1.85,-0.47 -2.65,0.05 0.64,0.08 0.76,-0.09 1.75,0.22 0.38,0.12 1.12,0.47 1.32,0.68z"/>
  <path class="fil4" d="M17.1 16.82l-0.27 -1.26c0.04,0.15 0.34,1.02 0.4,1.13 -0.02,-0.32 -0.59,-2.53 -0.72,-2.96 -0.2,-0.69 -0.62,-2.27 -0.91,-2.77l0.11 0.62 -0.28 -0.72c0.02,1.05 1.68,5.91 1.67,5.96z"/>
  <path class="fil4" d="M61.11 46.94c-0.5,-0.3 -8.1,-0.46 -8.94,-0.43 0.61,0.28 7.79,0.48 8.94,0.43z"/>
  <path class="fil5" d="M30.85 75.36c-0.08,-0.48 -0.26,-1.02 -0.36,-1.56 -0.27,-1.46 -0.32,-2.97 -0.14,-4.45 0.03,-0.23 0.11,-0.64 0.1,-0.83 -0.01,0.08 -0.19,0.59 -0.24,0.76 -0.22,0.86 -0.33,1.94 -0.28,2.83 0.05,1.01 0.35,2.17 0.8,3.08 0,0 0.04,0.07 0.04,0.07 0.09,0.13 0.01,0.03 0.08,0.09z"/>
  <path class="fil4" d="M7.12 62.94c0.07,0.07 0.03,0.01 0.07,0.12 0.01,0.03 0.02,0.12 0.02,0.15 0.05,0.33 0.47,1.68 0.56,1.9l0.05 0.19c0.07,-0.14 -0.06,-0.42 -0.06,-0.62l0.2 0.52 -0.14 -1.02 -1.44 -4.99 0.39 1.75c0.01,-0.18 -0.5,-1.67 -0.6,-2.01 0,0.3 0.56,2.5 0.7,3.06 0.07,0.25 0.22,0.71 0.24,0.95z"/>
  <path class="fil4" d="M21.51 6.95c-0.13,-0.21 -0.3,-0.42 -0.46,-0.62 -0.17,-0.21 -0.31,-0.41 -0.47,-0.61 -0.3,-0.38 -1.12,-1.44 -1.47,-1.8l-0.76 -0.83c-0.13,-0.15 -0.72,-0.84 -0.85,-0.84 -0.09,-0 -0.1,-0.05 -0.18,-0.12 0.24,0.44 2.13,2.74 2.54,3.17l1.37 1.49c0.03,0.03 0.02,0.03 0.06,0.04 0.16,0.04 -0.03,-0.08 0.22,0.11z"/>
  <path class="fil4" d="M54.35 41.65l0.12 0.14c0.02,-0.45 -0,-1.47 -0.45,-1.69 -0.55,-0.28 -0.88,0.3 -0.5,1.28 0.07,0.17 0.11,0.36 0.28,0.43 0.26,0.12 0.42,0 0.55,-0.15z"/>
  <path class="fil4" d="M56.87 41.82c0.02,-0.49 -0.01,-1.58 -0.55,-1.77 -0.25,-0.09 -0.44,0.05 -0.52,0.22 -0.11,0.24 0.14,0.94 0.25,1.16 0.09,0.19 0.21,0.58 0.6,0.43 0.13,-0.05 0,-0.03 0.11,-0.05l0.11 0z"/>
  <path class="fil4" d="M53.02 41.6c0.08,0.12 0.1,0.14 0.18,0.24 0.05,-0.59 -0.26,-2.46 -0.98,-1.98 -0.41,0.28 -0,1.26 0.31,1.68 0.18,0.25 0.23,0.09 0.49,0.06z"/>
  <path class="fil4" d="M58.52 39.54c-1.04,-0.16 -8.99,-0.7 -9.64,-0.6 0.41,0.17 8.4,0.67 9.64,0.6z"/>
  <path class="fil4" d="M51.87 41.45l0.14 0.23c-0.01,-0.45 -0.05,-0.96 -0.21,-1.34 -0.08,-0.21 -0.19,-0.34 -0.35,-0.43 -0.2,-0.11 -0.42,-0.05 -0.52,0.14 -0.14,0.27 0.26,1.61 0.41,1.58 0.07,-0.02 -0.06,-0.06 0.07,-0.03 0.16,0.03 0.22,0.26 0.46,-0.15z"/>
  <path class="fil4" d="M48.33 41.58c-0.01,-0.13 -0.04,-0.1 0.01,-0.22 0.1,0.4 0.68,0.45 0.51,-0.23 -0.05,-0.21 -0.1,-0.36 -0.16,-0.54 -0.1,-0.28 -0.25,-0.8 -0.38,-1.03 -0.85,-0.11 -0.39,1.1 -0.23,1.52 0.08,0.21 0.17,0.34 0.25,0.5z"/>
  <path class="fil4" d="M55.68 41.67c0.02,-2.09 -0.93,-1.65 -1.03,-1.35 -0.1,0.31 0.23,1.12 0.36,1.34 0.08,0.14 0,0.04 0.09,0.1 0.27,0.17 0.46,-0.07 0.51,-0.08l0.08 -0.01z"/>
  <path class="fil4" d="M16.35 10.3c0.17,-0.13 0.38,-0.3 0.6,-0.39 -0.09,0.13 -0.28,0.22 -0.38,0.4 0.18,-0.1 0.32,-0.22 0.52,-0.34 1.13,-0.67 2.61,-1.21 3.93,-1.39 0.33,-0.05 0.52,0.01 0.81,-0.01 -0.69,-0.17 -0.87,-0.19 -1.64,-0.08 -1.04,0.15 -1.92,0.47 -2.78,0.97 -0.32,0.19 -0.93,0.6 -1.06,0.84z"/>
  <path class="fil4" d="M15.63 61.84c-0.02,-0.21 -0.1,-0.45 -0.12,-0.71 -0.08,-0.7 0.04,-1.55 0.34,-2.16 0.48,-1.01 0.96,-1.27 1.9,-1.48 -1.55,-0.33 -2.52,1.22 -2.52,2.76 -0,0.94 0.29,1.57 0.29,1.72 -0.02,-0.37 -0.32,-0.91 -0.16,-1.94 0.03,-0.17 0.12,-0.47 0.12,-0.59 -0.01,0.19 -0.06,0.37 -0.07,0.6 -0.04,0.7 0.07,1.14 0.23,1.79z"/>
  <path class="fil4" d="M57.35 40.21c-0.49,0.12 -0.25,0.58 -0.14,0.95 0.11,0.38 0.22,0.83 0.6,0.78 0.23,-0.03 0.3,-0.16 0.28,-0.43 -0.03,-0.41 -0.17,-1.46 -0.74,-1.31z"/>
  <path class="fil4" d="M8.88 61.52c-0.14,-0.56 -0.29,-1.13 -0.45,-1.68l-0.48 -1.58 0.2 1.01c-0.01,-0.18 -0.16,-0.49 -0.16,-0.49 -0,-0.02 -0.01,-0.02 -0.02,-0.03 0.07,0.68 1.33,5.44 1.63,6.14 -0.01,-0.29 -0.15,-0.62 -0.16,-0.89 -0.01,-0.36 -0.47,-2.07 -0.58,-2.49z"/>
  <path class="fil4" d="M23.82 48.33l0.01 -0.33 0.18 0.34c-0.05,-1.21 -0.36,-2.16 -0.81,-3.09l-0.06 0.2c-0.02,-0.11 0.01,-0.03 -0.04,-0.13 -0.05,-0.09 -0.03,-0.05 -0.07,-0.09 0,0.83 0.21,1.65 0.51,2.41 0.09,0.22 0.22,0.49 0.29,0.7z"/>
  <path class="fil4" d="M50.15 41.54l-0.04 -0.37c0.04,0.27 0.18,0.29 0.33,0.39 0.07,0.05 -0,0.07 0.17,0.06 0.1,-0.51 -0.07,-1.92 -0.64,-1.8 -0.45,0.1 -0.23,0.99 -0.04,1.36 0.07,0.14 0.21,0.29 0.24,0.36z"/>
  <path class="fil4" d="M23.37 16.11l0.03 -0.1c0,-0 -0.01,-0.07 -0,-0.08l0.19 0.26c0.03,-0.09 -0.06,-0.13 0.01,-0.23 0.13,0.18 0.06,0.21 0.3,0.29 0.51,0.17 0.55,-0.28 0.31,-0.61 -0.11,-0.16 -0.14,-0.31 -0.21,-0.42 -0.12,-0.17 -0.68,-0.41 -0.83,-0.09 -0.21,0.43 0.12,0.74 0.22,0.97z"/>
  <path class="fil4" d="M60.37 44.19c-0,-0.06 -0.03,-0.14 0.01,-0.21l0.17 0.34c-0.09,-0.52 -0.48,-1.59 -0.67,-2.09 -0.29,-0.79 -0.53,-1.28 -0.81,-1.96l0.08 0.38c-0.02,-0.1 -0.17,-0.4 -0.24,-0.5 0.07,0.64 0.76,2.35 1.05,3.07 0.12,0.3 0.34,0.7 0.42,0.96z"/>
  <path class="fil4" d="M48.21 43.6c0.09,0.04 -0.04,-0.24 0.2,0.36 -0.07,-0.76 -1.04,-4.16 -1.37,-4.56 0.02,1.03 0.88,3.14 1.17,4.2z"/>
  <path class="fil4" d="M20.16 17.13l-0.1 -0.14c0.56,0.07 0.52,-0.27 0.34,-0.56 -0.17,-0.27 -0.25,-0.5 -0.62,-0.57 -0.47,-0.1 -0.36,0.39 -0.25,0.69 0.15,0.39 0.23,0.46 0.62,0.58z"/>
  <path class="fil4" d="M58.63 41.96l0.03 -0.33c0.06,0.05 0.06,0.06 0.12,0.15 0.02,0.03 0.03,0.06 0.06,0.09l0.11 0.11c0,-0.46 -0.09,-1.93 -0.7,-1.71 -0.38,0.14 -0.09,0.62 -0.01,0.85 0.09,0.25 0.25,0.65 0.38,0.83z"/>
  <path class="fil4" d="M50.01 43.79l-0.28 -1.25c0.04,0.23 0.31,0.73 0.3,0.9 -0.04,-0.4 -0.61,-2.29 -0.81,-2.9l-0.1 -0.31c-0.05,-0.1 -0.03,-0.06 -0.08,-0.11l0.07 0.38c0,-0.15 -0.31,-0.82 -0.38,-1.02 0.05,0.79 0.97,3.62 1.28,4.31z"/>
  <path class="fil4" d="M19.44 7.2c0.07,-0.31 -0.05,-0.4 -0.36,-0.78 -0.09,-0.11 -0.16,-0.19 -0.35,-0.25 -0.47,-0.16 -0.41,0.32 -0.33,0.7 0.05,0.24 0.22,0.4 0.45,0.37l0.04 -0.01c0,-0 0.01,-0.01 0.02,-0.01 0.25,-0.06 0.21,0.15 0.52,-0.03z"/>
  <path class="fil4" d="M58.07 51.5c-0.04,-0.21 -0.07,-0.43 -0.13,-0.65 -0.06,-0.24 -0.15,-0.47 -0.2,-0.71l0.04 0.05c0.15,0.24 0.3,0.88 0.41,1.11 -0.04,-0.95 -1.27,-3.82 -2.7,-3.81 1.15,0.14 2.5,3.19 2.58,4.01z"/>
  <path class="fil5" d="M53.72 68.31c-0.04,-1.18 -1.37,-2.23 -2.38,-2.13 0.41,0.14 1.05,0.64 1.34,0.88 0.31,0.25 0.8,0.83 1.04,1.25z"/>
  <path class="fil5" d="M50.65 65.1c0.1,-1.09 -0.63,-2.08 -1.57,-2.21 0.1,0.16 0.5,0.5 0.86,1.01l0.65 1.13c0.01,0.01 0.01,0.02 0.02,0.02l0.04 0.04z"/>
  <path class="fil4" d="M18.18 17.83c0.08,0.13 -0.14,-0.07 0.06,-0.01l0.13 0.04c0.33,0.02 0.36,0.13 0.49,0.05 0.28,-0.17 -0.13,-0.86 -0.55,-0.99 -0.77,-0.24 -0.39,0.76 -0.13,0.91z"/>
  <path class="fil4" d="M16.54 0.69l-0.26 0.12 0.1 -0.21c-0.07,0.06 -0.12,0.09 -0.23,0.14 -0.48,0.2 -0.41,-0.29 -0.16,-0.42 0.21,-0.11 0.32,-0.05 0.53,-0.02 -0.35,-0.48 -1.3,-0.41 -1.25,0.29 0.04,0.6 1.07,0.71 1.26,0.1z"/>
  <path class="fil4" d="M5.47 55.78c-0,-0.21 -0.33,-0.82 -0.41,-1.05 -0.03,0.63 0.46,2.53 0.78,2.89l-0.07 -0.72 0.24 0.69c-0.04,-0.74 -0.45,-1.69 -0.62,-2.35l0.08 0.54z"/>
  <path class="fil4" d="M16.56 18.73l0.28 0.12 0.06 -0.28c0,-0.01 0,-0.02 0.01,-0.03 0.07,0.04 0.07,-0.04 0.09,0.14 0.07,-0.18 -0.02,-0.01 0.16,-0.13 0,-0.18 -0.25,-0.78 -0.65,-0.87 -0.34,-0.08 -0.16,0.27 -0.13,0.47 0.04,0.21 0.09,0.41 0.18,0.59z"/>
  <path class="fil5" d="M79.25 25.23c-0.62,0.16 -0.35,0.96 0.18,0.84 0.55,-0.13 0.35,-0.97 -0.18,-0.84z"/>
  <path class="fil5" d="M31.29 80.16c0.05,0.05 0.05,-0.08 0.04,0.1l0.02 -0.07c-0.28,-1.76 -0.2,-1.55 0.12,-3.14 -0.47,0.56 -0.6,1.61 -0.43,2.37 0.07,0.3 0.2,0.52 0.25,0.75z"/>
  <path class="fil4" d="M26.9 48.04c0.03,-0.05 0.01,0.05 0.03,-0.09l-0 -0.27 0.18 0.46c0.02,-0.5 -0.27,-1.62 -0.49,-1.96l0.01 0.35c-0.03,-0.14 -0.13,-0.3 -0.19,-0.43 -0.03,0.78 0.33,1.44 0.47,1.95z"/>
  <path class="fil4" d="M27.21 15.48c-0.11,0.21 0.08,0.46 0.19,0.6 0.11,0.14 0.04,0.02 0.21,0.13 0.11,0.07 0.39,0.3 0.4,0.01 0,-0.03 -0.02,-0.16 -0.03,-0.19 -0.03,-0.12 -0.06,-0.25 -0.13,-0.31 -0.01,-0.01 -0.47,-0.27 -0.64,-0.23z"/>
  <path class="fil4" d="M15.96 1.8c0.05,-0.08 0.02,-0.09 0.04,-0.17 0.05,0.1 0.11,0.18 0.19,0.24l-0.09 -0.34 0.46 -0.11c0.04,0.12 0.11,0.19 0.16,0.3 0.03,-0.12 -0.02,-0.11 0.02,-0.23 0.05,0.11 0.11,0.2 0.17,0.29 -0.02,-0.15 -0.06,-0.4 -0.13,-0.51 -0.23,-0.33 -0.93,0.02 -0.97,0.08 -0.12,0.16 0.09,0.33 0.14,0.46z"/>
  <path class="fil4" d="M20.42 6.86c0.04,-0.09 0.02,-0.51 -0.36,-0.65 -0.1,-0.03 -0.21,-0.09 -0.31,-0.03 -0.29,0.19 0.23,0.81 0.67,0.67z"/>
  <path class="fil4" d="M26.74 16.05c0.09,-0.19 -0.09,-0.69 -0.29,-0.8 -0.07,-0.04 -0.24,-0.1 -0.31,-0.05 -0.22,0.14 0.11,0.43 0.16,0.5 0.07,0.1 0.04,0.2 0.14,0.28 0.05,0.04 0.21,0.09 0.29,0.08z"/>
  <path class="fil4" d="M48.5 44.49l0.3 0.02 -0.25 0.09c0.39,0.03 0.84,-0.03 1.22,-0.12 0.12,-0.03 0.26,-0.06 0.37,-0.13l-0.27 -0.01 0.36 -0.11c-0.52,-0.01 -1.3,0.08 -1.73,0.27z"/>
  <path class="fil1" d="M26.71 49.58c-0.1,-0.16 0.02,0.18 0,-0.06 0,-0 0,-0.01 -0,-0.02 -0.4,0.08 -0.79,0.16 -1.17,0.25 -0.23,0.06 -1,0.3 -1.12,0.3l0.49 -0.06c-0.01,0.01 -0.02,0.01 -0.03,0.02l-0.22 0.09c0.33,-0.01 1,-0.18 1.36,-0.26l0.69 -0.26z"/>
  <path class="fil6" d="M23.39 44.32l0.22 0.04c0.24,0.01 0.69,-0.11 0.93,-0.18 0.15,-0.04 0.29,-0.08 0.43,-0.12 0.16,-0.05 0.28,-0.12 0.43,-0.14l-0.7 0.11c0.14,-0.02 0.32,-0.1 0.47,-0.15 -0.43,-0.02 -1.74,0.45 -1.79,0.45z"/>
  <path class="fil4" d="M61.92 48.4c-0.1,-0.73 -1.09,-3.05 -1.1,-3.19 0.03,0.32 0.37,1.27 0.49,1.62l0.43 1.17c0.06,0.14 0.09,0.28 0.18,0.39z"/>
  <path class="fil4" d="M46.94 38.94c0.44,0.07 1.23,-0.03 1.53,-0.25 -0.49,-0.03 -1.14,0.07 -1.53,0.25z"/>
  <path class="fil4" d="M7.26 55.91c-0.03,-0.01 -0.04,0.08 -0.11,-0.13 -0.02,0.15 0.12,0.65 0.17,0.8 0.04,0.12 0.08,0.28 0.14,0.39 0.07,0.14 0.16,0.16 0.17,0.26 -0.04,-0.44 -0.22,-0.93 -0.36,-1.32z"/>
  <path class="fil1" d="M4.45 53.53c0.88,-0.06 0.58,-0.14 1.17,-0.27l-0.12 -0.05c0.13,-0.04 0.16,-0.08 0.25,-0.11 -0.37,0.03 -1.03,0.24 -1.3,0.43z"/>
  <path class="fil6" d="M6 58.33c0.24,0.04 1.07,-0.24 1.19,-0.37 0.01,-0.01 0.01,-0.05 0.08,-0.08 -0.42,0.03 -0.86,0.25 -1.22,0.37 0,0.01 0.07,0.05 -0.05,0.07z"/>
  <path class="fil5" d="M11.51 73.16c0.1,-0.06 0.06,-0.04 0.14,-0.13 0.21,-0.22 0.54,-0.43 0.83,-0.55 0.19,-0.08 0.3,-0.07 0.43,-0.15 -0.32,-0.01 -0.64,0.1 -0.86,0.25 -0.21,0.13 -0.43,0.36 -0.54,0.59z"/>
  <path class="fil4" d="M16.29 51.24c0,0 0,0 0,0z"/>
 </g>
</svg>
